<svg width="14" height="14" viewBox="0 0 14 14" fill="none" xmlns="http://www.w3.org/2000/svg">
<path d="M3.96266 3.46875V1.73438C3.96266 1.58105 4.0223 1.434 4.12847 1.32558C4.23463 1.21716 4.37862 1.15625 4.52876 1.15625H11.322C11.4722 1.15625 11.6161 1.21716 11.7223 1.32558C11.8285 1.434 11.8881 1.58105 11.8881 1.73438V9.82812C11.8881 9.98145 11.8285 10.1285 11.7223 10.2369C11.6161 10.3453 11.4722 10.4062 11.322 10.4062H9.6237V12.1406C9.6237 12.4598 9.36895 12.7188 9.05363 12.7188H2.26831C2.19366 12.7192 2.11965 12.7046 2.05054 12.6758C1.98143 12.6469 1.91859 12.6044 1.86562 12.5507C1.81264 12.497 1.77059 12.4331 1.74186 12.3627C1.71314 12.2923 1.69832 12.2169 1.69824 12.1406L1.69994 4.04688C1.69994 3.72775 1.95469 3.46875 2.27001 3.46875H3.96266ZM5.09487 3.46875H9.6237V9.25H10.7559V2.3125H5.09487V3.46875Z" fill="url(#paint0_linear_449_8657)"/>
<defs>
<linearGradient id="paint0_linear_449_8657" x1="2.37589" y1="5.85352" x2="10.6325" y2="6.4623" gradientUnits="userSpaceOnUse">
<stop stop-color="#68C9FF"/>
<stop offset="0.994746" stop-color="#D1B5FF"/>
</linearGradient>
</defs>
</svg>
