<svg width="18" height="19" viewBox="0 0 18 19" fill="none" xmlns="http://www.w3.org/2000/svg">
<path d="M4.09069 15.2006C4.09069 15.3653 4.22267 15.5 4.39068 15.5H13.6123C13.7773 15.5 13.9123 15.3653 13.9123 15.2006V14.1049H4.09069V15.2006ZM16.3721 5.60323C16.2612 5.5284 16.1172 5.53434 16.0122 5.6152L12.0464 8.76241L9.26248 3.64484C9.16046 3.4502 8.84249 3.45325 8.73749 3.64484L5.95361 8.76241L1.98779 5.6152C1.88279 5.53137 1.7388 5.5284 1.63081 5.60323C1.51981 5.67811 1.47481 5.81587 1.51382 5.94161L3.97764 13.506H14.0252L16.4861 5.94161C16.5251 5.81587 16.4802 5.67811 16.3721 5.60323Z" fill="url(#paint0_linear_55_2565)"/>
<defs>
<linearGradient id="paint0_linear_55_2565" x1="2.49754" y1="8.375" x2="14.5855" y2="9.63916" gradientUnits="userSpaceOnUse">
<stop stop-color="#68C9FF"/>
<stop offset="0.994746" stop-color="#D1B5FF"/>
</linearGradient>
</defs>
</svg>
