<svg width="25" height="25" viewBox="0 0 25 25" fill="none" xmlns="http://www.w3.org/2000/svg">
<path d="M12.9167 12.3958C12.5 11.1458 11.25 10.3125 10 10.3125C8.85421 10.3125 7.81254 10.9375 7.29171 11.875C6.97921 12.3958 7.18754 13.0208 7.70837 13.3333C8.22921 13.6458 8.85421 13.4375 9.16671 12.9167C9.47921 12.3958 10.1042 12.2917 10.625 12.5C11.1459 12.7083 11.25 13.4375 11.0417 13.9583C10.8334 14.2708 10.5209 14.4792 10.1042 14.4792C9.47921 14.4792 9.06254 14.8958 9.06254 15.5208V16.5625C9.06254 17.1875 9.47921 17.6042 10.1042 17.6042C10.7292 17.6042 11.1459 17.1875 11.1459 16.5625V16.3542C12.6042 15.8333 13.5417 14.0625 12.9167 12.3958ZM9.89587 18.75C9.27087 18.75 8.85421 19.1667 8.85421 19.7917C8.85421 20.4167 9.27087 20.8333 9.89587 20.8333C10.5209 20.8333 10.9375 20.4167 10.9375 19.7917C10.9375 19.1667 10.5209 18.75 9.89587 18.75ZM22.3959 7.39583C22.0834 7.1875 21.6667 7.1875 21.3542 7.39583L17.7084 9.27083C17.6042 7.60417 16.25 6.25 14.5834 6.25H5.20837C3.43754 6.25 2.08337 7.60417 2.08337 9.375V15.625C2.08337 17.3958 3.43754 18.75 5.20837 18.75H7.50004C7.60421 18.5417 7.70837 18.3333 7.81254 18.125C7.50004 17.7083 7.29171 17.1875 7.29171 16.5625V15.5208C7.29171 15.3125 7.29171 15.1042 7.39587 14.8958C7.18754 14.7917 6.97921 14.7917 6.77087 14.6875C5.52087 13.9583 5.10421 12.3958 5.83337 11.1458C6.77087 9.6875 8.33337 8.75 10 8.75C11.9792 8.75 13.75 10 14.375 11.875C14.7917 13.0208 14.6875 14.375 14.1667 15.4167C13.75 16.25 13.125 16.875 12.3959 17.3958C12.2917 17.7083 12.1875 17.9167 11.9792 18.2292C12.0834 18.3333 12.1875 18.5417 12.2917 18.75H14.5834C16.25 18.75 17.6042 17.3958 17.7084 15.7292L21.4584 17.6042C21.9792 17.8125 22.6042 17.6042 22.8125 17.1875C22.9167 16.9792 22.9167 16.875 22.9167 16.6667V8.33333C22.9167 8.02083 22.7084 7.60417 22.3959 7.39583Z" fill="url(#paint0_linear_55_2381)"/>
<defs>
<linearGradient id="paint0_linear_55_2381" x1="3.46884" y1="12.1745" x2="20.2023" y2="14.1745" gradientUnits="userSpaceOnUse">
<stop stop-color="#68C9FF"/>
<stop offset="0.994746" stop-color="#D1B5FF"/>
</linearGradient>
</defs>
</svg>
