<svg width="24" height="25" fill="none" xmlns="http://www.w3.org/2000/svg"><path d="M11.029 22.434L6.12 11H1.312l9.717 11.434z" fill="url(#paint0_linear_111_1562)"/><path d="M16.913 10.25L13.414 5h-2.827l-3.5 5.25h9.826z" fill="url(#paint1_linear_111_1562)"/><path d="M17.063 11H6.938L12 22.797 17.063 11z" fill="url(#paint2_linear_111_1562)"/><path d="M17.88 11l-4.908 11.434L22.688 11H17.88z" fill="url(#paint3_linear_111_1562)"/><path d="M6.187 10.25L9.686 5H5.508a.375.375 0 00-.296.146L1.327 10.25h4.86zm11.625 0h4.875l-3.9-5.104A.374.374 0 0018.491 5h-4.178l3.5 5.25z" fill="url(#paint4_linear_111_1562)"/><defs><linearGradient id="paint0_linear_111_1562" x1="1.959" y1="15.645" x2="9.834" y2="16.205" gradientUnits="userSpaceOnUse"><stop stop-color="#68C9FF"/><stop offset=".995" stop-color="#D1B5FF"/></linearGradient><linearGradient id="paint1_linear_111_1562" x1="7.741" y1="7.133" x2="15.554" y2="8.356" gradientUnits="userSpaceOnUse"><stop stop-color="#68C9FF"/><stop offset=".995" stop-color="#D1B5FF"/></linearGradient><linearGradient id="paint2_linear_111_1562" x1="7.611" y1="15.793" x2="15.817" y2="16.382" gradientUnits="userSpaceOnUse"><stop stop-color="#68C9FF"/><stop offset=".995" stop-color="#D1B5FF"/></linearGradient><linearGradient id="paint3_linear_111_1562" x1="13.618" y1="15.645" x2="21.494" y2="16.205" gradientUnits="userSpaceOnUse"><stop stop-color="#68C9FF"/><stop offset=".995" stop-color="#D1B5FF"/></linearGradient><linearGradient id="paint4_linear_111_1562" x1="2.748" y1="7.133" x2="18.342" y2="12.441" gradientUnits="userSpaceOnUse"><stop stop-color="#68C9FF"/><stop offset=".995" stop-color="#D1B5FF"/></linearGradient></defs></svg>