<svg width="24" height="24" viewBox="0 0 24 24" fill="none" xmlns="http://www.w3.org/2000/svg">
<path d="M10.59 17.0002L14.83 12.7102C14.9237 12.6172 14.9981 12.5066 15.0489 12.3848C15.0997 12.2629 15.1258 12.1322 15.1258 12.0002C15.1258 11.8682 15.0997 11.7375 15.0489 11.6156C14.9981 11.4938 14.9237 11.3832 14.83 11.2902L10.59 7.05019C10.497 6.95646 10.3864 6.88207 10.2646 6.8313C10.1427 6.78053 10.012 6.75439 9.88 6.75439C9.74798 6.75439 9.61728 6.78053 9.49542 6.8313C9.37356 6.88207 9.26296 6.95646 9.17 7.05019C8.98374 7.23755 8.8792 7.49101 8.8792 7.75519C8.8792 8.01938 8.98374 8.27283 9.17 8.46019L12.71 12.0002L9.16999 15.5402C8.98525 15.7265 8.8811 15.9779 8.87999 16.2402C8.87923 16.3718 8.90446 16.5023 8.95422 16.6241C9.00399 16.7459 9.07731 16.8568 9.16999 16.9502C9.25961 17.0473 9.36758 17.1256 9.48765 17.1807C9.60773 17.2358 9.73754 17.2666 9.86957 17.2713C10.0016 17.2759 10.1333 17.2543 10.2569 17.2078C10.3806 17.1613 10.4938 17.0907 10.59 17.0002Z" fill="#C8D2DC"/>
</svg>
