<svg width="24" height="24" viewBox="0 0 24 24" fill="none" xmlns="http://www.w3.org/2000/svg">
<path d="M13.41 6.99981L9.17 11.2898C9.07628 11.3828 9.00188 11.4934 8.95111 11.6152C8.90034 11.7371 8.87421 11.8678 8.87421 11.9998C8.87421 12.1318 8.90034 12.2625 8.95111 12.3844C9.00188 12.5062 9.07628 12.6168 9.17 12.7098L13.41 16.9498C13.503 17.0435 13.6136 17.1179 13.7354 17.1687C13.8573 17.2195 13.988 17.2456 14.12 17.2456C14.252 17.2456 14.3827 17.2195 14.5046 17.1687C14.6264 17.1179 14.737 17.0435 14.83 16.9498C15.0163 16.7624 15.1208 16.509 15.1208 16.2448C15.1208 15.9806 15.0163 15.7272 14.83 15.5398L11.29 11.9998L14.83 8.45981C15.0147 8.27355 15.1189 8.02215 15.12 7.75981C15.1208 7.6282 15.0955 7.49774 15.0458 7.3759C14.996 7.25406 14.9227 7.14325 14.83 7.04981C14.7404 6.95273 14.6324 6.87438 14.5123 6.81927C14.3923 6.76416 14.2625 6.7334 14.1304 6.72875C13.9984 6.7241 13.8667 6.74566 13.7431 6.79218C13.6194 6.83871 13.5062 6.90928 13.41 6.99981Z" fill="#C8D2DC"/>
</svg>
