<svg width="24" height="24" fill="none" xmlns="http://www.w3.org/2000/svg"><path d="M12 3c-4.963 0-9 4.037-9 9s4.037 9 9 9 9-4.037 9-9-4.037-9-9-9zm2.827 11.75a2.669 2.669 0 01-1.094.915 3.426 3.426 0 01-1.074.28v1.21a.333.333 0 01-.333.334h-.998a.333.333 0 01-.334-.334v-1.314a3.146 3.146 0 01-.559-.195 2.484 2.484 0 01-1.183-.982c-.283-.414-.435-.897-.459-1.469a.334.334 0 01.311-.347l.897-.06a.333.333 0 01.354.293c.036.3.12.548.245.718.14.21.319.348.59.459.575.253 1.306.253 1.812.059.224-.096.383-.207.488-.342a.715.715 0 00.134-.427.577.577 0 00-.133-.386c-.05-.066-.178-.19-.514-.324-.163-.054-.59-.175-1.238-.332-.757-.188-1.195-.332-1.466-.48-.405-.213-.709-.48-.9-.79a2.005 2.005 0 01-.294-1.072c0-.43.12-.839.356-1.217a2.32 2.32 0 011.05-.844c.149-.067.318-.124.51-.169V6.822c0-.185.149-.334.333-.334h.998c.185 0 .334.15.334.334v1.053c.3.05.578.126.83.226.488.22.841.513 1.094.903a2.5 2.5 0 01.42 1.307.334.334 0 01-.31.35l-.919.061a.332.332 0 01-.353-.287c-.051-.377-.177-.64-.385-.803-.236-.201-.578-.295-1.057-.295-.469 0-.845.09-1.06.257a.603.603 0 00-.257.51c0 .163.051.292.153.382.053.043.346.234 1.294.433.782.184 1.357.353 1.673.488.502.226.86.518 1.071.869.235.351.354.745.354 1.19 0 .463-.128.894-.38 1.283z" fill="#1D1F21"/></svg>