<svg width="40" height="40" fill="none" xmlns="http://www.w3.org/2000/svg"><path d="M28.333 15v-3.333C28.333 7 24.667 3.333 20 3.333S11.666 7 11.666 11.667V15c-2.833 0-5 2.167-5 5v11.667c0 2.833 2.167 5 5 5h16.667c2.834 0 5-2.167 5-5V20c0-2.833-2.166-5-5-5zM15 11.667c0-2.834 2.166-5 5-5 2.833 0 5 2.166 5 5V15H15v-3.333zm6.833 14.166l-.166.167v2.333C21.666 29.333 21 30 20 30s-1.667-.667-1.667-1.667V26c-1-1-1.166-2.5-.166-3.5 1-1 2.5-1.167 3.5-.167 1 .834 1.166 2.5.166 3.5z" fill="#C8D2DC"/></svg>