<svg width="25" height="25" fill="none" xmlns="http://www.w3.org/2000/svg"><path d="M12.917 12.396c-.417-1.25-1.667-2.084-2.917-2.084-1.146 0-2.187.626-2.708 1.563-.313.52-.104 1.146.417 1.458.52.313 1.145.104 1.458-.416.312-.521.937-.625 1.458-.417.521.208.625.938.417 1.458-.208.313-.521.521-.938.521-.625 0-1.041.417-1.041 1.042v1.041c0 .625.416 1.042 1.041 1.042s1.042-.416 1.042-1.041v-.209c1.458-.52 2.396-2.291 1.77-3.958zM9.896 18.75c-.625 0-1.042.417-1.042 1.042s.417 1.041 1.042 1.041 1.042-.416 1.042-1.041-.417-1.042-1.042-1.042zm12.5-11.354a.946.946 0 00-1.042 0L17.71 9.27c-.105-1.667-1.459-3.021-3.125-3.021H5.209c-1.771 0-3.125 1.354-3.125 3.125v6.25c0 1.77 1.354 3.125 3.124 3.125H7.5l.313-.625a2.559 2.559 0 01-.521-1.563V15.52c0-.209 0-.417.104-.625-.208-.104-.417-.104-.625-.209a2.57 2.57 0 01-.938-3.541C6.771 9.687 8.334 8.75 10 8.75c1.98 0 3.75 1.25 4.375 3.125.417 1.146.313 2.5-.208 3.542-.417.833-1.042 1.458-1.771 1.979-.104.312-.208.52-.417.833.105.104.209.313.313.521h2.292c1.666 0 3.02-1.354 3.125-3.02l3.75 1.874c.52.209 1.145 0 1.354-.416.104-.209.104-.313.104-.521V8.333c0-.312-.209-.729-.521-.937z" fill="url(#paint0_linear_55_1746)"/><defs><linearGradient id="paint0_linear_55_1746" x1="3.469" y1="12.175" x2="20.202" y2="14.175" gradientUnits="userSpaceOnUse"><stop stop-color="#68C9FF"/><stop offset=".995" stop-color="#D1B5FF"/></linearGradient></defs></svg>