<svg width="24" height="24" viewBox="0 0 24 24" fill="none" xmlns="http://www.w3.org/2000/svg">
<path d="M5.45425 19.6008C5.45425 19.8203 5.63023 20 5.85424 20H18.1497C18.3697 20 18.5497 19.8203 18.5497 19.6008V18.1398H5.45425V19.6008ZM21.8295 6.80431C21.6815 6.70453 21.4896 6.71245 21.3496 6.82026L16.0618 11.0165L12.35 4.19312C12.2139 3.93359 11.79 3.93767 11.65 4.19312L7.93814 11.0165L2.65039 6.82026C2.51039 6.70849 2.3184 6.70453 2.17441 6.80431C2.02642 6.90415 1.96641 7.08782 2.01843 7.25548L5.30352 17.3413H18.7003L21.9815 7.25548C22.0335 7.08782 21.9736 6.90415 21.8295 6.80431Z" fill="#FCFFFF"/>
</svg>
