<svg width="24" height="24" viewBox="0 0 24 24" fill="none" xmlns="http://www.w3.org/2000/svg">
<path d="M12.2402 2.40002C6.9602 2.40002 4.2002 5.76002 4.2002 9.48002C4.2002 11.28 5.1602 13.08 6.7202 14.04C7.2002 14.28 7.0802 14.04 7.4402 12.6C7.4402 12.48 7.4402 12.36 7.3202 12.24C5.1602 9.60002 6.9602 4.44002 12.0002 4.44002C19.3202 4.44002 17.8802 14.52 13.3202 14.52C12.3602 14.64 11.5202 13.92 11.5202 12.96V12.48C12.0002 11.16 12.3602 9.96002 12.4802 8.64002C12.4802 6.12002 8.7602 6.48002 8.7602 9.84002C8.7602 10.44 8.8802 11.04 9.1202 11.52C9.1202 11.52 7.9202 16.44 7.6802 17.28C7.4402 18.72 7.5602 20.16 7.8002 21.48C7.6802 21.6 7.8002 21.6 7.8002 21.6H7.9202C8.7602 20.4 9.4802 19.2 9.9602 17.88C10.0802 17.28 10.6802 15.12 10.6802 15.12C11.2802 15.96 12.3602 16.44 13.4402 16.44C17.1602 16.44 19.8002 13.2 19.8002 9.24002C19.8002 5.28002 16.4402 2.40002 12.2402 2.40002Z" fill="#FCFFFF"/>
</svg>
