<svg width="18" height="19" fill="none" xmlns="http://www.w3.org/2000/svg"><path d="M4.09 15.2a.3.3 0 00.3.3h9.222a.3.3 0 00.3-.3v-1.095H4.091V15.2zm12.282-9.597a.307.307 0 00-.36.012l-3.966 3.147-2.784-5.117c-.102-.195-.42-.192-.525 0L5.954 8.762 1.988 5.615a.298.298 0 00-.357-.012.3.3 0 00-.117.339l2.464 7.564h10.047l2.461-7.564a.302.302 0 00-.114-.339z" fill="url(#paint0_linear_55_2565)"/><defs><linearGradient id="paint0_linear_55_2565" x1="2.498" y1="8.375" x2="14.585" y2="9.639" gradientUnits="userSpaceOnUse"><stop stop-color="#68C9FF"/><stop offset=".995" stop-color="#D1B5FF"/></linearGradient></defs></svg>