<svg width="16" height="20" fill="none" xmlns="http://www.w3.org/2000/svg"><g clip-path="url(#clip0_120_3246)"><path d="M15.853 16.583c-1.066-2.733-2.846-6.6-4.426-10A279.8 279.8 0 019.26 1.817a1.683 1.683 0 00-.521-.712 1.212 1.212 0 00-.742-.263c-.263 0-.52.091-.743.263a1.683 1.683 0 00-.52.712 217.834 217.834 0 01-2.167 4.758c-1.574 3.417-3.334 7.292-4.427 10a2.147 2.147 0 00-.147.783 2.19 2.19 0 00.105.691c.072.22.177.419.31.587.134.168.292.302.467.393.175.09.362.138.552.138h13.146a1.19 1.19 0 00.548-.14c.174-.091.331-.224.464-.391.132-.167.237-.365.308-.583.072-.218.108-.451.107-.686 0-.272-.05-.54-.147-.784z" fill="#86A8FF"/></g><defs><clipPath id="clip0_120_3246"><path fill="#fff" d="M0 0h16v20H0z"/></clipPath></defs></svg>