<svg width="16" height="20" fill="none" xmlns="http://www.w3.org/2000/svg"><g clip-path="url(#clip0_120_3249)"><path d="M.147 3.417c1.066 2.733 2.846 6.6 4.426 10a279.91 279.91 0 012.167 4.766c.118.293.298.54.521.712.223.172.48.263.742.263.263 0 .52-.091.743-.263.223-.172.403-.419.52-.712a217.96 217.96 0 012.167-4.758c1.574-3.417 3.334-7.292 4.427-10a2.17 2.17 0 00.147-.783 2.19 2.19 0 00-.106-.691 1.877 1.877 0 00-.31-.587 1.463 1.463 0 00-.466-.393 1.19 1.19 0 00-.552-.138H1.427a1.19 1.19 0 00-.548.14 1.464 1.464 0 00-.464.391 1.878 1.878 0 00-.308.583A2.188 2.188 0 000 2.633c0 .272.05.54.147.784z" fill="#525960"/></g><defs><clipPath id="clip0_120_3249"><path fill="#fff" transform="rotate(-180 8 10)" d="M0 0h16v20H0z"/></clipPath></defs></svg>