<svg width="28" height="28" fill="none" xmlns="http://www.w3.org/2000/svg"><g clip-path="url(#clip0_120_3836)"><path d="M20.487 24.5a1.18 1.18 0 01-.537-.128L14 21.257l-5.95 3.115a1.167 1.167 0 01-1.691-1.237l1.166-6.568L2.72 11.9a1.166 1.166 0 01-.292-1.167 1.167 1.167 0 01.945-.793l6.65-.968 2.928-5.985a1.166 1.166 0 012.1 0l2.963 5.973 6.65.968a1.166 1.166 0 01.945.794 1.166 1.166 0 01-.291 1.166l-4.807 4.667 1.167 6.568a1.167 1.167 0 01-.467 1.167 1.166 1.166 0 01-.723.21z" fill="#FCFFFF"/></g><defs><clipPath id="clip0_120_3836"><path fill="#fff" d="M0 0h28v28H0z"/></clipPath></defs></svg>