<svg width="18" height="18" viewBox="0 0 18 18" fill="none" xmlns="http://www.w3.org/2000/svg">
<path d="M5.16161 4.5V2.25C5.16161 2.05109 5.2393 1.86032 5.37758 1.71967C5.51586 1.57902 5.70341 1.5 5.89897 1.5H14.7473C14.9429 1.5 15.1304 1.57902 15.2687 1.71967C15.407 1.86032 15.4847 2.05109 15.4847 2.25V12.75C15.4847 12.9489 15.407 13.1397 15.2687 13.2803C15.1304 13.421 14.9429 13.5 14.7473 13.5H12.5352V15.75C12.5352 16.164 12.2034 16.5 11.7927 16.5H2.95468C2.85744 16.5006 2.76105 16.4816 2.67104 16.4442C2.58102 16.4068 2.49916 16.3517 2.43017 16.282C2.36117 16.2123 2.30639 16.1294 2.26898 16.0381C2.23156 15.9468 2.21225 15.8489 2.21216 15.75L2.21437 5.25C2.21437 4.836 2.54618 4.5 2.9569 4.5H5.16161ZM6.63634 4.5H12.5352V12H14.01V3H6.63634V4.5Z" fill="url(#paint0_linear_260_2423)"/>
<defs>
<linearGradient id="paint0_linear_260_2423" x1="3.09481" y1="7.59375" x2="13.8488" y2="8.38986" gradientUnits="userSpaceOnUse">
<stop stop-color="#68C9FF"/>
<stop offset="0.994746" stop-color="#D1B5FF"/>
</linearGradient>
</defs>
</svg>
