<svg width="20" height="21" viewBox="0 0 20 21" fill="none" xmlns="http://www.w3.org/2000/svg">
<path d="M3.45151 5.55459C4.07575 5.50033 4.86525 5.50033 5.92597 5.50033H7.40745C9.48172 5.50033 10.5189 5.50033 11.3111 5.9061C12.008 6.26303 12.5746 6.83256 12.9297 7.53307C13.3334 8.32945 13.3334 9.37196 13.3334 11.457V13.4665C13.3334 13.6747 13.3334 13.7788 13.3292 13.8668C13.2645 15.2419 12.4614 16.4198 11.3087 17.0098L12.4513 17.8248C13.1971 18.3568 14.1772 17.5885 13.8368 16.7387C13.5957 16.1367 14.0396 15.4819 14.6889 15.4819H15.1903C16.9262 15.4819 18.3334 14.0766 18.3334 12.3432V8.82444C18.3334 6.49411 18.3334 5.32895 17.8792 4.43888C17.4798 3.65596 16.8423 3.01942 16.0583 2.6205C15.167 2.16699 14.0003 2.16699 11.6667 2.16699H10C7.66649 2.16699 6.49971 2.16699 5.60841 2.6205C4.8244 3.01942 4.18699 3.65596 3.78751 4.43888C3.62328 4.76077 3.51843 5.11864 3.45151 5.55459Z" fill="#525960"/>
<path fill-rule="evenodd" clip-rule="evenodd" d="M12.1468 8.12726C12.5 8.82994 12.5 9.74981 12.5 11.5895V13.3626C12.5 13.5463 12.5 13.6382 12.4964 13.7158C12.4174 15.4079 11.0819 16.7616 9.41255 16.8417C9.33597 16.8454 9.23487 16.8454 9.03268 16.8454L8.9808 16.8455C8.31953 16.8498 7.67538 17.059 7.13483 17.4451L7.10046 17.4699L5.40831 18.6951C4.82823 19.1151 4.06597 18.5085 4.33072 17.8376C4.51826 17.3624 4.17296 16.8454 3.66799 16.8454H3.27797C1.92786 16.8454 0.833374 15.736 0.833374 14.3675V11.5895C0.833374 9.74981 0.833374 8.82994 1.18659 8.12726C1.49729 7.50916 1.99306 7.00663 2.60285 6.69169C3.29608 6.33366 4.20357 6.33366 6.01856 6.33366H7.31486C9.12984 6.33366 10.0373 6.33366 10.7306 6.69169C11.3404 7.00663 11.8361 7.50916 12.1468 8.12726ZM4.16671 13.0003C4.62694 13.0003 5.00004 12.6272 5.00004 12.167C5.00004 11.7068 4.62694 11.3337 4.16671 11.3337C3.70647 11.3337 3.33337 11.7068 3.33337 12.167C3.33337 12.6272 3.70647 13.0003 4.16671 13.0003ZM7.50004 12.167C7.50004 12.6272 7.12694 13.0003 6.66671 13.0003C6.20647 13.0003 5.83337 12.6272 5.83337 12.167C5.83337 11.7068 6.20647 11.3337 6.66671 11.3337C7.12694 11.3337 7.50004 11.7068 7.50004 12.167ZM9.16671 13.0003C9.62694 13.0003 10 12.6272 10 12.167C10 11.7068 9.62694 11.3337 9.16671 11.3337C8.70647 11.3337 8.33337 11.7068 8.33337 12.167C8.33337 12.6272 8.70647 13.0003 9.16671 13.0003Z" fill="#525960"/>
</svg>
