<svg width="18" height="19" viewBox="0 0 18 19" fill="none" xmlns="http://www.w3.org/2000/svg">
<path fill-rule="evenodd" clip-rule="evenodd" d="M8.76236 0.358434C8.92067 0.350574 9.07927 0.350574 9.23757 0.358434C9.84871 0.388776 10.4113 0.566351 11.0386 0.857414C11.6491 1.14076 12.3587 1.5504 13.2563 2.06864L13.3072 2.09802C14.2048 2.61628 14.9143 3.02592 15.465 3.41304C16.0307 3.8107 16.4658 4.20917 16.7977 4.72325C16.8836 4.85642 16.9629 4.99377 17.0353 5.1348C17.3146 5.67923 17.4421 6.25527 17.5036 6.94399C17.5635 7.61446 17.5635 8.43374 17.5635 9.47022V9.52896C17.5635 10.5655 17.5635 11.3848 17.5036 12.0552C17.4421 12.744 17.3146 13.32 17.0353 13.8644C16.9629 14.0055 16.8836 14.1428 16.7977 14.276C16.4658 14.7901 16.0307 15.1885 15.465 15.5862C14.9143 15.9733 14.2048 16.383 13.3072 16.9012L13.2563 16.9306C12.3587 17.4488 11.6492 17.8585 11.0386 18.1418C10.4113 18.4329 9.84871 18.6105 9.23757 18.6408C9.07927 18.6487 8.92067 18.6487 8.76236 18.6408C8.15123 18.6105 7.58859 18.4329 6.96138 18.1418C6.35078 17.8585 5.64127 17.4488 4.74365 16.9306L4.69272 16.9012C3.79515 16.383 3.08555 15.9733 2.53489 15.5862C1.96922 15.1885 1.53412 14.7901 1.20227 14.276C1.11631 14.1428 1.03701 14.0055 0.964665 13.8644C0.685375 13.32 0.557841 12.744 0.496302 12.0553C0.436392 11.3848 0.436396 10.5655 0.436401 9.52897V9.47027C0.436396 8.43376 0.436392 7.61447 0.496302 6.94399C0.557841 6.25528 0.685375 5.67923 0.964665 5.1348C1.03701 4.99377 1.11631 4.85642 1.20227 4.72325C1.53411 4.20917 1.96922 3.8107 2.53489 3.41305C3.08559 3.02592 3.79512 2.61628 4.69277 2.09803L4.74359 2.06869C5.64123 1.55043 6.35077 1.14077 6.96137 0.857414C7.58859 0.566351 8.15123 0.388776 8.76236 0.358434ZM13.7277 7.39392C13.8797 7.08402 13.7518 6.70956 13.4419 6.55754C13.132 6.40553 12.7575 6.53352 12.6055 6.84342L11.3885 9.3243C11.0113 10.0933 9.9027 10.0557 9.57841 9.26298C8.84578 7.4721 6.34123 7.38726 5.48909 9.12445L4.27215 11.6053C4.12013 11.9152 4.24812 12.2897 4.55802 12.4417C4.86792 12.5937 5.24238 12.4657 5.3944 12.1558L6.61134 9.67495C6.98854 8.90599 8.09717 8.94354 8.42147 9.73627C9.1541 11.5271 11.6586 11.612 12.5108 9.87479L13.7277 7.39392Z" fill="url(#paint0_linear_1539_2497)"/>
<defs>
<linearGradient id="paint0_linear_1539_2497" x1="1.5754" y1="7.78454" x2="15.4435" y2="8.87078" gradientUnits="userSpaceOnUse">
<stop stop-color="#6880FF"/>
<stop offset="0.55203" stop-color="#3CA7F4"/>
<stop offset="0.994746" stop-color="#8C45FF"/>
</linearGradient>
</defs>
</svg>
