<svg width="20" height="21" viewBox="0 0 20 21" fill="none" xmlns="http://www.w3.org/2000/svg">
<path fill-rule="evenodd" clip-rule="evenodd" d="M9.76236 1.35843C9.92067 1.35057 10.0793 1.35057 10.2376 1.35843C10.8487 1.38878 11.4113 1.56635 12.0386 1.85741C12.6491 2.14076 13.3587 2.5504 14.2563 3.06864L14.3072 3.09802C15.2048 3.61628 15.9143 4.02592 16.465 4.41304C17.0307 4.8107 17.4658 5.20917 17.7977 5.72325C17.8836 5.85642 17.9629 5.99377 18.0353 6.1348C18.3146 6.67923 18.4421 7.25527 18.5036 7.94399C18.5635 8.61446 18.5635 9.43374 18.5635 10.4702V10.529C18.5635 11.5655 18.5635 12.3848 18.5036 13.0552C18.4421 13.744 18.3146 14.32 18.0353 14.8644C17.9629 15.0055 17.8836 15.1428 17.7977 15.276C17.4658 15.7901 17.0307 16.1885 16.465 16.5862C15.9143 16.9733 15.2048 17.383 14.3072 17.9012L14.2563 17.9306C13.3587 18.4488 12.6492 18.8585 12.0386 19.1418C11.4113 19.4329 10.8487 19.6105 10.2376 19.6408C10.0793 19.6487 9.92067 19.6487 9.76236 19.6408C9.15123 19.6105 8.58859 19.4329 7.96138 19.1418C7.35078 18.8585 6.64127 18.4488 5.74365 17.9306L5.69272 17.9012C4.79515 17.383 4.08555 16.9733 3.53489 16.5862C2.96922 16.1885 2.53412 15.7901 2.20227 15.276C2.11631 15.1428 2.03701 15.0055 1.96467 14.8644C1.68538 14.32 1.55784 13.744 1.4963 13.0553C1.43639 12.3848 1.4364 11.5655 1.4364 10.529V10.4703C1.4364 9.43376 1.43639 8.61447 1.4963 7.94399C1.55784 7.25528 1.68537 6.67923 1.96466 6.1348C2.03701 5.99377 2.11631 5.85642 2.20227 5.72325C2.53411 5.20917 2.96922 4.8107 3.53489 4.41305C4.08559 4.02592 4.79512 3.61628 5.69277 3.09803L5.74359 3.06869C6.64123 2.55043 7.35077 2.14077 7.96137 1.85741C8.58859 1.56635 9.15123 1.38878 9.76236 1.35843ZM14.7277 8.39392C14.8797 8.08402 14.7518 7.70956 14.4419 7.55754C14.132 7.40553 13.7575 7.53352 13.6055 7.84342L12.3885 10.3243C12.0113 11.0933 10.9027 11.0557 10.5784 10.263C9.84578 8.4721 7.34123 8.38726 6.48909 10.1245L5.27215 12.6053C5.12013 12.9152 5.24812 13.2897 5.55802 13.4417C5.86792 13.5937 6.24238 13.4657 6.3944 13.1558L7.61134 10.6749C7.98854 9.90599 9.09717 9.94354 9.42147 10.7363C10.1541 12.5271 12.6586 12.612 13.5108 10.8748L14.7277 8.39392Z" fill="#525960"/>
</svg>
