<svg width="20" height="21" viewBox="0 0 20 21" fill="none" xmlns="http://www.w3.org/2000/svg">
<path fill-rule="evenodd" clip-rule="evenodd" d="M10 1.54199C7.97487 1.54199 6.30494 3.06278 6.06996 5.02462C5.74187 5.08746 5.43961 5.17829 5.14968 5.31121C4.31181 5.6953 3.60251 6.3129 3.1068 7.08996C2.80677 7.56028 2.62874 8.08641 2.48888 8.72822C2.35186 9.35703 2.24298 10.141 2.10446 11.1383L2.09679 11.1936C1.91854 12.477 1.77919 13.4803 1.73686 14.2884C1.69389 15.1089 1.74587 15.7927 1.99271 16.4204C2.39614 17.4464 3.14105 18.302 4.10181 18.8427C4.68964 19.1735 5.35975 19.3191 6.17838 19.3894C6.98465 19.4587 7.99757 19.4587 9.29328 19.4587H10.7067C12.0024 19.4587 13.0153 19.4587 13.8216 19.3894C14.6403 19.3191 15.3104 19.1735 15.8982 18.8427C16.8589 18.302 17.6039 17.4464 18.0073 16.4204C18.2541 15.7927 18.3061 15.1089 18.2631 14.2884C18.2208 13.4802 18.0815 12.4769 17.9032 11.1935L17.8955 11.1383C17.757 10.141 17.6481 9.35703 17.5111 8.72822C17.3713 8.08641 17.1932 7.56028 16.8932 7.08996C16.3975 6.3129 15.6882 5.6953 14.8503 5.31121C14.5604 5.17829 14.2581 5.08746 13.93 5.02462C13.6951 3.06278 12.0251 1.54199 10 1.54199ZM9.2855 4.87533C8.53377 4.87532 7.90101 4.87532 7.35924 4.89644C7.63367 3.69136 8.71181 2.79199 10 2.79199C11.2882 2.79199 12.3663 3.69136 12.6408 4.89644C12.099 4.87532 11.4662 4.87532 10.7145 4.87533H9.2855ZM6.66671 7.37533C6.32153 7.37533 6.04171 7.65515 6.04171 8.00033C6.04171 8.3455 6.32153 8.62533 6.66671 8.62533H13.3334C13.6786 8.62533 13.9584 8.3455 13.9584 8.00033C13.9584 7.65515 13.6786 7.37533 13.3334 7.37533H6.66671Z" fill="#525960"/>
</svg>
