<svg width="22" height="22" viewBox="0 0 22 22" fill="none" xmlns="http://www.w3.org/2000/svg">
<path d="M1.58598 0.57922C1.46043 0.516427 1.31978 0.490129 1.18002 0.503318C1.04026 0.516508 0.907013 0.568656 0.795428 0.653829C0.683843 0.739003 0.598401 0.853784 0.548822 0.985115C0.499243 1.11645 0.487518 1.25906 0.51498 1.39672L2.61948 8.67172C2.65872 8.80729 2.73542 8.92904 2.84076 9.02298C2.9461 9.11691 3.07581 9.17921 3.21498 9.20272L11.75 10.6322C12.152 10.7117 12.152 11.2877 11.75 11.3672L3.21498 12.7967C3.07581 12.8202 2.9461 12.8825 2.84076 12.9765C2.73542 13.0704 2.65872 13.1921 2.61948 13.3277L0.51498 20.6027C0.487518 20.7404 0.499243 20.883 0.548822 21.0143C0.598401 21.1457 0.683843 21.2604 0.795428 21.3456C0.907013 21.4308 1.04026 21.4829 1.18002 21.4961C1.31978 21.5093 1.46043 21.483 1.58598 21.4202L21.086 11.6702C21.2104 11.6079 21.315 11.5121 21.3881 11.3937C21.4612 11.2753 21.4999 11.1389 21.4999 10.9997C21.4999 10.8606 21.4612 10.7241 21.3881 10.6057C21.315 10.4873 21.2104 10.3916 21.086 10.3292L1.58598 0.57922Z" fill="url(#paint0_linear_218_1907)"/>
<defs>
<linearGradient id="paint0_linear_218_1907" x1="1.897" y1="9.03102" x2="18.8859" y2="10.4524" gradientUnits="userSpaceOnUse">
<stop stop-color="#68C9FF"/>
<stop offset="0.994746" stop-color="#D1B5FF"/>
</linearGradient>
</defs>
</svg>
