<svg width="20" height="21" viewBox="0 0 20 21" fill="none" xmlns="http://www.w3.org/2000/svg">
<path d="M5 6.95801C5 5.23212 6.39911 3.83301 8.125 3.83301C9.85089 3.83301 11.25 5.23212 11.25 6.95801C11.25 8.6839 9.85089 10.083 8.125 10.083C6.39911 10.083 5 8.6839 5 6.95801Z" fill="#525960"/>
<path d="M10.9161 4.15124C11.6371 4.86817 12.0833 5.86097 12.0833 6.95801C12.0833 8.05505 11.6371 9.04785 10.9161 9.76477C11.3312 9.96857 11.7981 10.083 12.2917 10.083C14.0176 10.083 15.4167 8.6839 15.4167 6.95801C15.4167 5.23212 14.0176 3.83301 12.2917 3.83301C11.7981 3.83301 11.3312 3.94745 10.9161 4.15124Z" fill="#525960"/>
<path d="M2.5 14.458C2.5 12.7321 3.89911 11.333 5.625 11.333H10.625C12.3509 11.333 13.75 12.7321 13.75 14.458C13.75 16.1839 12.3509 17.583 10.625 17.583H5.625C3.89911 17.583 2.5 16.1839 2.5 14.458Z" fill="#525960"/>
<path d="M14.5833 14.458C14.5833 15.3121 14.3128 16.103 13.8529 16.7497H14.7917C16.5176 16.7497 17.9167 15.3506 17.9167 13.6247C17.9167 11.8988 16.5176 10.4997 14.7917 10.4997H10.625C12.8111 10.4997 14.5833 12.2719 14.5833 14.458Z" fill="#525960"/>
</svg>
