<svg width="32" height="32" fill="none" xmlns="http://www.w3.org/2000/svg"><rect width="32" height="32" rx="9" fill="url(#paint0_linear_44_788)" fill-opacity=".1"/><path d="M11.09 21.7a.3.3 0 00.3.3h9.222a.3.3 0 00.3-.3v-1.095h-9.821V21.7zm12.282-9.597a.307.307 0 00-.36.012l-3.966 3.147-2.784-5.117c-.102-.195-.42-.192-.524 0l-2.784 5.117-3.966-3.147a.298.298 0 00-.357-.012.3.3 0 00-.117.339l2.464 7.564h10.047l2.461-7.564a.302.302 0 00-.114-.339z" fill="url(#paint1_linear_44_788)"/><defs><linearGradient id="paint0_linear_44_788" x1="2.128" y1="13" x2="28.017" y2="15.166" gradientUnits="userSpaceOnUse"><stop stop-color="#68C9FF"/><stop offset=".995" stop-color="#D1B5FF"/></linearGradient><linearGradient id="paint1_linear_44_788" x1="9.498" y1="14.875" x2="21.585" y2="16.139" gradientUnits="userSpaceOnUse"><stop stop-color="#68C9FF"/><stop offset=".995" stop-color="#D1B5FF"/></linearGradient></defs></svg>