<svg width="14" height="15" fill="none" xmlns="http://www.w3.org/2000/svg"><path d="M7 1.667a2.92 2.92 0 00-2.917 2.916V5.75H3.5c-.643 0-1.167.523-1.167 1.167v5.25c0 .643.524 1.166 1.167 1.166h7c.643 0 1.167-.523 1.167-1.166v-5.25c0-.644-.524-1.167-1.167-1.167h-.583V4.583A2.92 2.92 0 007 1.667zM5.25 4.583c0-.965.785-1.75 1.75-1.75s1.75.785 1.75 1.75V5.75h-3.5V4.583zm5.251 7.584H7.583v-1.33A1.163 1.163 0 007 8.668c-.643 0-1.167.523-1.167 1.166 0 .43.237.802.584 1.005v1.329H3.5v-5.25h7l.001 5.25z" fill="#C8D2DC"/></svg>