<svg width="161" height="46" fill="none" xmlns="http://www.w3.org/2000/svg"><path d="M20.683 11.69c-5.759 1.939-5.297 9.294-5.27 9.439-1.177-6.983-1.22-10.693 3.131-12.757 3.168-1.503 6.231 1.94 2.14 3.318z" fill="url(#paint0_linear_78_3746)"/><path d="M10.063 13.017c.543-1.425 1.502-1.715 2.407-1.554 1.103.196 1.328 1.528.99 2.596-1.467 4.64.533 8.865 2.06 10.61-3.982-1.18-6.637-8.554-5.457-11.652z" fill="url(#paint1_linear_78_3746)"/><path fill-rule="evenodd" clip-rule="evenodd" d="M22.064 37.798h-5.289v-7.76c-1.4-.222-2.782-.528-4.057-.943-3.732-1.215-4.714-2.77-4.718-3.88-.002-.691.323-1.487.972-1.725.764-.28 2.23-.013 4.778 1.918 1.689 1.279 3.993 1.809 6.265 1.903 3.071.113 5.663-.12 6.97-.65l.022-.007.035-.017c.001 0 .002 0 .002.002l.003.002c.288-.098.544-.243.767-.435.471-.39.983-1.414.983-2.09 0-.697-.236-1.24-.707-1.63-.451-.39-1.035-.584-1.753-.584h-4.273v4.243c-2.293-.14-4.258-.435-5.289-.717V17.29h10.27c2.213 0 3.956.656 5.226 1.968 1.271 1.291 1.907 2.91 1.907 4.858 0 1.926-.636 3.546-1.907 4.858-1.27 1.291-3.013 1.937-5.227 1.937h-4.98v6.887z" fill="url(#paint2_linear_78_3746)"/><path d="M47.078 32.052c-1.296 0-2.357-.527-3.183-1.58v5.255h-2.713v-14.25h2.713v1.303c.812-1.04 1.873-1.56 3.183-1.56 1.354 0 2.45.485 3.29 1.453.855.954 1.283 2.272 1.283 3.953 0 1.68-.428 3.005-1.282 3.974-.84.968-1.937 1.452-3.29 1.452zm-.854-2.414c.783 0 1.41-.278 1.88-.833.484-.556.727-1.282.727-2.18 0-.882-.243-1.602-.727-2.157-.47-.556-1.097-.834-1.88-.834-.442 0-.883.114-1.325.342-.441.228-.776.506-1.004.834v3.653c.228.328.563.605 1.004.833.456.228.898.342 1.325.342zm12.264 2.414c-1.596 0-2.913-.498-3.953-1.495-1.04-.997-1.56-2.308-1.56-3.931 0-1.524.499-2.806 1.496-3.846 1.011-1.04 2.293-1.56 3.846-1.56 1.538 0 2.784.527 3.739 1.581.954 1.04 1.431 2.407 1.431 4.102v.599h-7.67a2.62 2.62 0 00.919 1.709c.527.456 1.21.684 2.05.684.457 0 .948-.093 1.475-.278.541-.185.969-.435 1.282-.748l1.196 1.752c-1.04.954-2.457 1.431-4.251 1.431zm2.371-6.388c-.043-.584-.278-1.11-.705-1.58-.413-.47-1.025-.706-1.837-.706-.77 0-1.368.235-1.795.705a2.736 2.736 0 00-.748 1.581h5.085zm9.395 6.388c-1.595 0-2.905-.505-3.93-1.517-1.026-1.01-1.54-2.314-1.54-3.91 0-1.58.514-2.877 1.54-3.888 1.025-1.011 2.335-1.517 3.93-1.517 1.823 0 3.184.62 4.081 1.859l-1.773 1.666c-.499-.74-1.225-1.11-2.18-1.11-.826 0-1.502.277-2.03.833-.512.541-.768 1.26-.768 2.158 0 .897.256 1.623.769 2.179.527.555 1.203.833 2.03.833.925 0 1.652-.37 2.179-1.11l1.773 1.644c-.897 1.254-2.257 1.88-4.08 1.88zm15.555-.256h-2.714v-6.281c0-.684-.163-1.168-.491-1.453-.328-.285-.805-.428-1.432-.428-.954 0-1.737.407-2.35 1.218v6.944H76.11v-14.25h2.713v5.277c.37-.442.87-.82 1.496-1.133.64-.313 1.353-.47 2.136-.47 1.111 0 1.945.285 2.5.855.57.57.855 1.367.855 2.393v7.328zm7.543.256c-1.595 0-2.913-.498-3.952-1.495-1.04-.997-1.56-2.308-1.56-3.931 0-1.524.499-2.806 1.496-3.846 1.01-1.04 2.293-1.56 3.845-1.56 1.539 0 2.785.527 3.74 1.581.954 1.04 1.43 2.407 1.43 4.102v.599h-7.67a2.62 2.62 0 00.92 1.709c.526.456 1.21.684 2.05.684.456 0 .948-.093 1.475-.278.54-.185.968-.435 1.281-.748l1.197 1.752c-1.04.954-2.457 1.431-4.252 1.431zm2.372-6.388c-.043-.584-.278-1.11-.705-1.58-.413-.47-1.026-.706-1.838-.706-.769 0-1.367.235-1.794.705a2.735 2.735 0 00-.748 1.581h5.085zm14.266 6.132h-2.713v-6.239c0-1.281-.634-1.922-1.902-1.922-.983 0-1.766.405-2.35 1.217v6.944h-2.713v-10.32h2.713v1.347c.897-1.069 2.101-1.603 3.611-1.603 1.111 0 1.944.292 2.5.876.569.584.854 1.389.854 2.415v7.285zm5.301-.278a1.664 1.664 0 01-1.218.513c-.47 0-.876-.17-1.218-.513a1.663 1.663 0 01-.513-1.218c0-.47.171-.876.513-1.217a1.664 1.664 0 011.218-.513c.47 0 .876.17 1.218.513.342.341.513.748.513 1.218s-.171.876-.513 1.217zm11.769.278h-2.713v-1.068c-.741.883-1.831 1.324-3.269 1.324-.926 0-1.759-.299-2.5-.897-.726-.612-1.09-1.453-1.09-2.521 0-1.111.357-1.944 1.069-2.5.726-.555 1.567-.833 2.521-.833 1.467 0 2.557.42 3.269 1.26v-1.388a1.5 1.5 0 00-.62-1.26c-.413-.314-.961-.47-1.645-.47-1.125 0-2.129.405-3.012 1.217l-1.026-1.816c1.225-1.082 2.728-1.624 4.508-1.624 1.325 0 2.407.306 3.248.919.84.612 1.26 1.61 1.26 2.991v6.666zm-4.893-1.581c1.012 0 1.738-.3 2.18-.897v-1.282c-.442-.599-1.168-.898-2.18-.898-.555 0-1.018.143-1.388.428-.371.27-.556.648-.556 1.132 0 .47.185.84.556 1.111.37.27.833.406 1.388.406zm10.298 1.581h-2.714v-10.32h2.714v1.41a4.538 4.538 0 011.474-1.196c.598-.313 1.204-.47 1.816-.47v2.65a3.457 3.457 0 00-.748-.065c-.455 0-.94.114-1.453.342-.512.228-.875.506-1.089.834v6.815zm8.447.256c-.955 0-1.681-.242-2.18-.726-.498-.484-.747-1.182-.747-2.094v-5.384h-1.71v-2.371h1.71v-2.82h2.734v2.82h2.094v2.371h-2.094v4.658c0 .327.086.598.257.812.171.213.399.32.683.32.428 0 .741-.1.94-.299l.577 2.051c-.498.442-1.253.662-2.264.662zm7.475 0a7.873 7.873 0 01-2.585-.427c-.812-.285-1.489-.676-2.03-1.175l1.175-1.901c.399.37.94.698 1.624.982.684.285 1.332.428 1.944.428.57 0 .997-.1 1.282-.3.299-.199.449-.47.449-.811 0-.257-.157-.463-.47-.62-.299-.17-.677-.292-1.132-.363a15.701 15.701 0 01-1.475-.32 10.543 10.543 0 01-1.474-.513 2.854 2.854 0 01-1.132-.94c-.299-.442-.449-.983-.449-1.624 0-.912.378-1.681 1.132-2.308.755-.626 1.788-.94 3.098-.94 1.596 0 2.984.47 4.167 1.41l-1.09 1.86c-.328-.343-.769-.628-1.325-.855a4.411 4.411 0 00-1.73-.342c-.485 0-.876.1-1.175.299-.299.185-.449.427-.449.726 0 .228.15.42.449.577.299.143.676.25 1.132.32.456.072.947.186 1.474.342a8.97 8.97 0 011.474.535c.456.199.834.527 1.133.982.299.456.448 1.012.448 1.667 0 .968-.398 1.766-1.196 2.393-.783.612-1.873.918-3.269.918z" fill="#fff"/><defs><linearGradient id="paint0_linear_78_3746" x1="12" y1="20.5" x2="32.995" y2="27.149" gradientUnits="userSpaceOnUse"><stop stop-color="#51EAFF"/><stop offset="1" stop-color="#2B59FF"/></linearGradient><linearGradient id="paint1_linear_78_3746" x1="12" y1="20.5" x2="32.995" y2="27.149" gradientUnits="userSpaceOnUse"><stop stop-color="#51EAFF"/><stop offset="1" stop-color="#2B59FF"/></linearGradient><linearGradient id="paint2_linear_78_3746" x1="12" y1="20.5" x2="32.995" y2="27.149" gradientUnits="userSpaceOnUse"><stop stop-color="#51EAFF"/><stop offset="1" stop-color="#2B59FF"/></linearGradient></defs></svg>