<svg width="24" height="24" fill="none" xmlns="http://www.w3.org/2000/svg"><path d="M12.24 2.4C6.96 2.4 4.2 5.76 4.2 9.48c0 1.8.96 3.6 2.52 4.56.48.24.36 0 .72-1.44 0-.12 0-.24-.12-.36-2.16-2.64-.36-7.8 4.68-7.8 7.32 0 5.88 10.08 1.32 10.08-.96.12-1.8-.6-1.8-1.56v-.48c.48-1.32.84-2.52.96-3.84 0-2.52-3.72-2.16-3.72 1.2 0 .6.12 1.2.36 1.68 0 0-1.2 4.92-1.44 5.76-.24 1.44-.12 2.88.12 4.2-.12.12 0 .12 0 .12h.12c.84-1.2 1.56-2.4 2.04-3.72.12-.6.72-2.76.72-2.76.6.84 1.68 1.32 2.76 1.32 3.72 0 6.36-3.24 6.36-7.2S16.44 2.4 12.24 2.4z" fill="url(#paint0_linear_44_729)"/><defs><linearGradient id="paint0_linear_44_729" x1="5.237" y1="10.2" x2="17.888" y2="11.06" gradientUnits="userSpaceOnUse"><stop stop-color="#68C9FF"/><stop offset=".995" stop-color="#D1B5FF"/></linearGradient></defs></svg>