<svg width="48" height="48" viewBox="0 0 48 48" fill="none" xmlns="http://www.w3.org/2000/svg">
<rect width="48" height="48" rx="12" fill="url(#paint0_linear_120_2710)" fill-opacity="0.1"/>
<g clip-path="url(#clip0_120_2710)">
<path d="M30.4869 34.5C30.3003 34.5008 30.1163 34.4568 29.9502 34.3717L24.0002 31.2567L18.0502 34.3717C17.857 34.4733 17.6392 34.5186 17.4215 34.5026C17.2038 34.4865 16.9949 34.4097 16.8187 34.2809C16.6425 34.1521 16.5059 33.9764 16.4246 33.7738C16.3432 33.5713 16.3204 33.3499 16.3585 33.135L17.5252 26.5667L12.7185 21.9C12.5686 21.7504 12.4622 21.5627 12.4108 21.3572C12.3594 21.1516 12.365 20.936 12.4269 20.7333C12.4945 20.526 12.6189 20.3418 12.7859 20.2015C12.953 20.0613 13.156 19.9707 13.3719 19.94L20.0219 18.9717L22.9502 12.9867C23.0457 12.7894 23.1949 12.6231 23.3806 12.5067C23.5663 12.3903 23.781 12.3286 24.0002 12.3286C24.2194 12.3286 24.4341 12.3903 24.6198 12.5067C24.8055 12.6231 24.9547 12.7894 25.0502 12.9867L28.0135 18.96L34.6635 19.9283C34.8795 19.959 35.0825 20.0496 35.2495 20.1899C35.4165 20.3301 35.5409 20.5143 35.6085 20.7217C35.6704 20.9243 35.676 21.14 35.6246 21.3455C35.5732 21.551 35.4668 21.7387 35.3169 21.8883L30.5102 26.555L31.6769 33.1233C31.7185 33.3421 31.6967 33.5681 31.614 33.7749C31.5313 33.9816 31.3912 34.1604 31.2102 34.29C30.9989 34.4381 30.7446 34.5119 30.4869 34.5Z" fill="url(#paint1_linear_120_2710)"/>
</g>
<defs>
<linearGradient id="paint0_linear_120_2710" x1="3.19212" y1="19.5" x2="42.025" y2="22.7489" gradientUnits="userSpaceOnUse">
<stop stop-color="#68C9FF"/>
<stop offset="0.994746" stop-color="#D1B5FF"/>
</linearGradient>
<linearGradient id="paint1_linear_120_2710" x1="13.9244" y1="21.338" x2="32.7478" y2="22.9914" gradientUnits="userSpaceOnUse">
<stop stop-color="#68C9FF"/>
<stop offset="0.994746" stop-color="#D1B5FF"/>
</linearGradient>
<clipPath id="clip0_120_2710">
<rect width="28" height="28" fill="white" transform="translate(10 10)"/>
</clipPath>
</defs>
</svg>
