<svg width="36" height="36" viewBox="0 0 36 36" fill="none" xmlns="http://www.w3.org/2000/svg">
<rect width="36" height="36" rx="8" fill="url(#paint0_linear_120_2970)" fill-opacity="0.1"/>
<g clip-path="url(#clip0_120_2970)">
<path d="M22.1701 24.75C22.0501 24.7505 21.9318 24.7222 21.8251 24.6675L18.0001 22.665L14.1751 24.6675C14.0509 24.7328 13.9108 24.762 13.7709 24.7517C13.6309 24.7414 13.4967 24.692 13.3834 24.6092C13.2701 24.5264 13.1823 24.4134 13.13 24.2832C13.0777 24.153 13.063 24.0107 13.0876 23.8725L13.8376 19.65L10.7476 16.65C10.6512 16.5538 10.5828 16.4332 10.5497 16.3011C10.5167 16.1689 10.5203 16.0303 10.5601 15.9C10.6035 15.7667 10.6835 15.6483 10.7909 15.5581C10.8983 15.468 11.0288 15.4098 11.1676 15.39L15.4426 14.7675L17.3251 10.92C17.3865 10.7932 17.4824 10.6863 17.6017 10.6115C17.7211 10.5366 17.8592 10.4969 18.0001 10.4969C18.141 10.4969 18.279 10.5366 18.3984 10.6115C18.5178 10.6863 18.6137 10.7932 18.6751 10.92L20.5801 14.76L24.8551 15.3825C24.9939 15.4023 25.1244 15.4605 25.2318 15.5506C25.3391 15.6408 25.4191 15.7592 25.4626 15.8925C25.5024 16.0228 25.5059 16.1614 25.4729 16.2936C25.4399 16.4257 25.3715 16.5463 25.2751 16.6425L22.1851 19.6425L22.9351 23.865C22.9618 24.0056 22.9478 24.151 22.8947 24.2839C22.8415 24.4168 22.7514 24.5317 22.6351 24.615C22.4993 24.7102 22.3357 24.7577 22.1701 24.75Z" fill="url(#paint1_linear_120_2970)"/>
</g>
<defs>
<linearGradient id="paint0_linear_120_2970" x1="2.39409" y1="14.625" x2="31.5187" y2="17.0617" gradientUnits="userSpaceOnUse">
<stop stop-color="#68C9FF"/>
<stop offset="0.994746" stop-color="#D1B5FF"/>
</linearGradient>
<linearGradient id="paint1_linear_120_2970" x1="11.5227" y1="16.2888" x2="23.6235" y2="17.3517" gradientUnits="userSpaceOnUse">
<stop stop-color="#68C9FF"/>
<stop offset="0.994746" stop-color="#D1B5FF"/>
</linearGradient>
<clipPath id="clip0_120_2970">
<rect width="18" height="18" fill="white" transform="translate(9 9)"/>
</clipPath>
</defs>
</svg>
