<svg width="20" height="21" viewBox="0 0 20 21" fill="none" xmlns="http://www.w3.org/2000/svg">
<path d="M0.833333 10.3555C0.833333 12.3952 0.943714 13.9774 1.21794 15.2113C1.49006 16.4358 1.91232 17.2655 2.50113 17.8543C3.08995 18.4432 3.91971 18.8654 5.14415 19.1375C6.37805 19.4118 7.96027 19.5221 10 19.5221C12.0397 19.5221 13.6219 19.4118 14.8558 19.1375C16.0803 18.8654 16.9101 18.4432 17.4989 17.8543C18.0877 17.2655 18.5099 16.4358 18.7821 15.2113C19.0563 13.9774 19.1667 12.3952 19.1667 10.3555C19.1667 8.31574 19.0563 6.73352 18.7821 5.49962C18.5099 4.27518 18.0877 3.44542 17.4989 2.8566C16.9101 2.26778 16.0803 1.84553 14.8558 1.57341C13.6219 1.29918 12.0397 1.1888 10 1.1888C7.96027 1.1888 6.37805 1.29918 5.14415 1.57341C3.91971 1.84553 3.08995 2.26778 2.50113 2.8566C1.91232 3.44542 1.49006 4.27518 1.21794 5.49962C0.943714 6.73352 0.833333 8.31574 0.833333 10.3555Z" stroke="#525960" stroke-width="1.66667" stroke-linecap="round" stroke-linejoin="round"/>
<path d="M10.0002 6.18848V14.5218M14.1668 9.52181V14.5218M5.8335 11.1885V14.5218" stroke="#525960" stroke-width="1.66667" stroke-linecap="round" stroke-linejoin="round"/>
</svg>
