<svg width="20" height="21" fill="none" xmlns="http://www.w3.org/2000/svg"><path fill-rule="evenodd" clip-rule="evenodd" d="M10 1.542a3.959 3.959 0 00-3.93 3.483c-.328.062-.63.153-.92.286A4.792 4.792 0 003.107 7.09c-.3.47-.478.996-.618 1.638-.137.629-.246 1.413-.385 2.41l-.007.056c-.178 1.283-.318 2.286-.36 3.094-.043.82.009 1.505.256 2.132a4.792 4.792 0 002.109 2.423c.588.33 1.258.476 2.076.546.807.07 1.82.07 3.115.07h1.414c1.295 0 2.308 0 3.115-.07.818-.07 1.488-.215 2.076-.546a4.792 4.792 0 002.11-2.423c.246-.627.298-1.311.255-2.132-.042-.808-.182-1.811-.36-3.095l-.008-.055c-.138-.997-.247-1.781-.384-2.41-.14-.642-.318-1.168-.618-1.638a4.791 4.791 0 00-2.043-1.779 3.97 3.97 0 00-.92-.286A3.959 3.959 0 0010 1.542zm-.714 3.333c-.752 0-1.385 0-1.927.021a2.71 2.71 0 015.282 0 52.452 52.452 0 00-1.927-.02H9.287zm-2.62 2.5a.625.625 0 100 1.25h6.667a.625.625 0 100-1.25H6.667z" fill="url(#paint0_linear_1539_2412)"/><defs><linearGradient id="paint0_linear_1539_2412" x1="2.824" y1="8.821" x2="16.23" y2="9.857" gradientUnits="userSpaceOnUse"><stop stop-color="#68C9FF"/><stop offset=".995" stop-color="#D1B5FF"/></linearGradient></defs></svg>