<svg width="18" height="18" fill="none" xmlns="http://www.w3.org/2000/svg"><path d="M5.162 4.5V2.25c0-.199.077-.39.216-.53a.731.731 0 01.521-.22h8.848c.196 0 .383.079.522.22.138.14.216.331.216.53v10.5c0 .199-.078.39-.216.53a.73.73 0 01-.522.22h-2.212v2.25c0 .414-.332.75-.742.75H2.955a.727.727 0 01-.525-.218.752.752 0 01-.218-.532l.002-10.5c0-.414.332-.75.743-.75h2.205zm1.474 0h5.9V12h1.474V3H6.636v1.5z" fill="url(#paint0_linear_260_2423)"/><defs><linearGradient id="paint0_linear_260_2423" x1="3.095" y1="7.594" x2="13.849" y2="8.39" gradientUnits="userSpaceOnUse"><stop stop-color="#68C9FF"/><stop offset=".995" stop-color="#D1B5FF"/></linearGradient></defs></svg>