<svg width="20" height="21" fill="none" xmlns="http://www.w3.org/2000/svg"><path d="M3.452 5.555C4.076 5.5 4.865 5.5 5.926 5.5h1.481c2.075 0 3.112 0 3.904.406a3.713 3.713 0 011.619 1.627c.403.796.403 1.839.403 3.924v2.01c0 .208 0 .312-.004.4a3.724 3.724 0 01-2.02 3.143l1.142.815c.746.532 1.726-.236 1.386-1.086a.917.917 0 01.852-1.257h.501a3.14 3.14 0 003.143-3.139V8.824c0-2.33 0-3.495-.454-4.385a4.163 4.163 0 00-1.82-1.819c-.892-.453-2.059-.453-4.392-.453H10c-2.334 0-3.5 0-4.392.454a4.164 4.164 0 00-1.82 1.818c-.165.322-.27.68-.336 1.116z" fill="#525960"/><path fill-rule="evenodd" clip-rule="evenodd" d="M12.147 8.127c.353.703.353 1.623.353 3.462v1.774c0 .183 0 .275-.004.353-.079 1.692-1.414 3.046-3.083 3.126-.077.003-.178.003-.38.003H8.98a3.211 3.211 0 00-1.846.6l-.035.025-1.692 1.225c-.58.42-1.342-.186-1.077-.857a.723.723 0 00-.663-.993h-.39c-1.35 0-2.445-1.109-2.445-2.477v-2.779c0-1.84 0-2.76.354-3.462.31-.618.806-1.12 1.416-1.435.693-.358 1.6-.358 3.416-.358h1.296c1.815 0 2.722 0 3.416.358.61.315 1.105.817 1.416 1.435zM4.167 13a.833.833 0 100-1.666.833.833 0 000 1.666zm3.333-.833a.833.833 0 11-1.667 0 .833.833 0 011.667 0zM9.167 13a.833.833 0 100-1.666.833.833 0 000 1.666z" fill="#525960"/></svg>