<svg width="18" height="19" fill="none" xmlns="http://www.w3.org/2000/svg"><path fill-rule="evenodd" clip-rule="evenodd" d="M8.762.358c.159-.007.317-.007.476 0 .61.03 1.173.208 1.8.5.611.283 1.32.692 2.218 1.21l.051.03c.898.518 1.607.928 2.158 1.315.566.398 1 .796 1.333 1.31.086.133.165.27.237.412.28.544.407 1.12.469 1.809.06.67.06 1.49.06 2.526v.059c0 1.037 0 1.856-.06 2.526-.062.689-.19 1.265-.469 1.81a4.816 4.816 0 01-.237.411c-.332.514-.767.912-1.333 1.31-.55.387-1.26.797-2.158 1.315l-.05.03c-.898.518-1.608.927-2.218 1.21-.628.292-1.19.47-1.801.5a4.767 4.767 0 01-.476 0c-.61-.03-1.173-.208-1.8-.5-.611-.282-1.32-.692-2.218-1.21l-.051-.03c-.898-.518-1.607-.928-2.158-1.315-.566-.398-1-.796-1.333-1.31a4.786 4.786 0 01-.237-.412c-.28-.544-.407-1.12-.469-1.809-.06-.67-.06-1.49-.06-2.526V9.47c0-1.036 0-1.856.06-2.526.062-.689.19-1.265.469-1.81a4.64 4.64 0 01.237-.41c.332-.515.767-.913 1.333-1.311.55-.387 1.26-.797 2.158-1.315l.05-.03c.898-.518 1.608-.927 2.218-1.21.628-.292 1.19-.47 1.801-.5zm4.966 7.036a.625.625 0 10-1.123-.55l-1.216 2.48c-.378.77-1.486.732-1.81-.061-.733-1.79-3.238-1.876-4.09-.139l-1.217 2.481a.625.625 0 101.122.55l1.217-2.48c.378-.769 1.486-.731 1.81.061.733 1.791 3.238 1.876 4.09.139l1.217-2.481z" fill="url(#paint0_linear_1539_2497)"/><defs><linearGradient id="paint0_linear_1539_2497" x1="1.575" y1="7.785" x2="15.444" y2="8.871" gradientUnits="userSpaceOnUse"><stop stop-color="#6880FF"/><stop offset=".552" stop-color="#3CA7F4"/><stop offset=".995" stop-color="#8C45FF"/></linearGradient></defs></svg>