<svg width="20" height="21" fill="none" xmlns="http://www.w3.org/2000/svg"><path d="M5 6.958a3.125 3.125 0 116.25 0 3.125 3.125 0 01-6.25 0z" fill="#525960"/><path d="M10.916 4.151a3.946 3.946 0 011.167 2.807c0 1.097-.446 2.09-1.167 2.807a3.125 3.125 0 100-5.614zM2.5 14.458c0-1.726 1.4-3.125 3.125-3.125h5a3.125 3.125 0 110 6.25h-5A3.125 3.125 0 012.5 14.458z" fill="#525960"/><path d="M14.583 14.458a3.94 3.94 0 01-.73 2.292h.939a3.125 3.125 0 100-6.25h-4.167a3.958 3.958 0 013.958 3.958z" fill="#525960"/></svg>