<svg width="45" height="45" viewBox="0 0 45 45" fill="none" xmlns="http://www.w3.org/2000/svg">
<path d="M10.2267 36.7514C10.2267 37.1631 10.5567 37.5 10.9767 37.5H34.0307C34.4432 37.5 34.7807 37.1631 34.7807 36.7514V34.0122H10.2267V36.7514ZM40.9304 12.7581C40.6529 12.571 40.2929 12.5858 40.0305 12.788L30.1159 20.656L23.1562 7.8621C22.9012 7.37549 22.1062 7.38313 21.8437 7.8621L14.884 20.656L4.96948 12.788C4.70698 12.5784 4.347 12.571 4.07701 12.7581C3.79954 12.9453 3.68702 13.2897 3.78456 13.604L9.94409 32.5149H35.063L41.2153 13.604C41.3129 13.2897 41.2004 12.9453 40.9304 12.7581Z" fill="#FCFFFF"/>
</svg>
