<svg width="18" height="19" viewBox="0 0 18 19" fill="none" xmlns="http://www.w3.org/2000/svg">
<path d="M9.00002 10.0325L6.34502 7.37751C6.2045 7.23782 6.01441 7.15942 5.81627 7.15942C5.61813 7.15942 5.42804 7.23782 5.28752 7.37751C5.21723 7.44723 5.16143 7.53018 5.12335 7.62158C5.08528 7.71297 5.06567 7.811 5.06567 7.91001C5.06567 8.00902 5.08528 8.10705 5.12335 8.19844C5.16143 8.28984 5.21723 8.37279 5.28752 8.44251L8.46752 11.6225C8.53724 11.6928 8.6202 11.7486 8.71159 11.7867C8.80298 11.8248 8.90101 11.8444 9.00002 11.8444C9.09903 11.8444 9.19706 11.8248 9.28846 11.7867C9.37985 11.7486 9.4628 11.6928 9.53252 11.6225L12.75 8.44251C12.8195 8.37243 12.8745 8.28932 12.9119 8.19794C12.9492 8.10656 12.9681 8.00872 12.9675 7.91001C12.9681 7.81131 12.9492 7.71346 12.9119 7.62208C12.8745 7.5307 12.8195 7.44759 12.75 7.37751C12.6095 7.23782 12.4194 7.15942 12.2213 7.15942C12.0231 7.15942 11.833 7.23782 11.6925 7.37751L9.00002 10.0325Z" fill="#C8D2DC"/>
</svg>
