<svg width="14" height="15" viewBox="0 0 14 15" fill="none" xmlns="http://www.w3.org/2000/svg">
<path d="M7.00001 1.66666C5.39176 1.66666 4.08334 2.97507 4.08334 4.58332V5.74999H3.50001C2.85659 5.74999 2.33334 6.27324 2.33334 6.91666V12.1667C2.33334 12.8101 2.85659 13.3333 3.50001 13.3333H10.5C11.1434 13.3333 11.6667 12.8101 11.6667 12.1667V6.91666C11.6667 6.27324 11.1434 5.74999 10.5 5.74999H9.91668V4.58332C9.91668 2.97507 8.60826 1.66666 7.00001 1.66666ZM5.25001 4.58332C5.25001 3.61849 6.03518 2.83332 7.00001 2.83332C7.96484 2.83332 8.75001 3.61849 8.75001 4.58332V5.74999H5.25001V4.58332ZM10.5012 12.1667H7.58334V10.8378C7.93043 10.6354 8.16668 10.2632 8.16668 9.83332C8.16668 9.18991 7.64343 8.66666 7.00001 8.66666C6.35659 8.66666 5.83334 9.18991 5.83334 9.83332C5.83334 10.2627 6.06959 10.6354 6.41668 10.8378V12.1667H3.50001V6.91666H10.5L10.5012 12.1667V12.1667Z" fill="#C8D2DC"/>
</svg>
