<svg width="24" height="24" viewBox="0 0 24 24" fill="none" xmlns="http://www.w3.org/2000/svg">
<path d="M12.24 2.39999C6.96 2.39999 4.2 5.75999 4.2 9.47999C4.2 11.28 5.16 13.08 6.72 14.04C7.2 14.28 7.08 14.04 7.44 12.6C7.44 12.48 7.44 12.36 7.32 12.24C5.16 9.59999 6.96 4.43999 12 4.43999C19.32 4.43999 17.88 14.52 13.32 14.52C12.36 14.64 11.52 13.92 11.52 12.96V12.48C12 11.16 12.36 9.95999 12.48 8.63999C12.48 6.11999 8.76 6.47999 8.76 9.83999C8.76 10.44 8.88 11.04 9.12 11.52C9.12 11.52 7.92 16.44 7.68 17.28C7.44 18.72 7.56 20.16 7.8 21.48C7.68 21.6 7.8 21.6 7.8 21.6H7.92C8.76 20.4 9.48 19.2 9.96 17.88C10.08 17.28 10.68 15.12 10.68 15.12C11.28 15.96 12.36 16.44 13.44 16.44C17.16 16.44 19.8 13.2 19.8 9.23999C19.8 5.27999 16.44 2.39999 12.24 2.39999Z" fill="url(#paint0_linear_44_729)"/>
<defs>
<linearGradient id="paint0_linear_44_729" x1="5.23744" y1="10.2" x2="17.888" y2="11.0599" gradientUnits="userSpaceOnUse">
<stop stop-color="#68C9FF"/>
<stop offset="0.994746" stop-color="#D1B5FF"/>
</linearGradient>
</defs>
</svg>
