<svg width="24" height="24" viewBox="0 0 24 24" fill="none" xmlns="http://www.w3.org/2000/svg">
<path d="M22.5 6L20.25 6.375L21.75 4.5L19.125 5.25C15.75 1.5 10.5 5.625 12 9C6 9 3 4.5 3 4.5C3 4.5 0.75 7.875 4.5 10.5L2.25 9.75C2.25 12 3.75 13.5 6.375 14.25H3.75C5.25 17.25 7.875 17.25 7.875 17.25C7.875 17.25 5.625 19.125 1.5 19.125C13.875 25.125 21.375 13.875 20.25 7.875L22.5 6Z" fill="url(#paint0_linear_44_739)"/>
<defs>
<linearGradient id="paint0_linear_44_739" x1="2.89655" y1="10.6984" x2="19.8256" y2="12.4406" gradientUnits="userSpaceOnUse">
<stop stop-color="#68C9FF"/>
<stop offset="0.994746" stop-color="#D1B5FF"/>
</linearGradient>
</defs>
</svg>
