<svg width="36" height="36" fill="none" xmlns="http://www.w3.org/2000/svg"><rect width="36" height="36" rx="8" fill="url(#paint0_linear_120_2970)" fill-opacity=".1"/><g clip-path="url(#clip0_120_2970)"><path d="M22.17 24.75a.75.75 0 01-.345-.082L18 22.665l-3.825 2.003a.75.75 0 01-1.087-.796l.75-4.222-3.09-3a.75.75 0 01-.188-.75.75.75 0 01.608-.51l4.275-.623 1.882-3.847a.75.75 0 011.35 0l1.905 3.84 4.275.623a.751.751 0 01.608.51.75.75 0 01-.188.75l-3.09 3 .75 4.222a.751.751 0 01-.3.75.75.75 0 01-.465.135z" fill="url(#paint1_linear_120_2970)"/></g><defs><linearGradient id="paint0_linear_120_2970" x1="2.394" y1="14.625" x2="31.519" y2="17.062" gradientUnits="userSpaceOnUse"><stop stop-color="#68C9FF"/><stop offset=".995" stop-color="#D1B5FF"/></linearGradient><linearGradient id="paint1_linear_120_2970" x1="11.523" y1="16.289" x2="23.623" y2="17.352" gradientUnits="userSpaceOnUse"><stop stop-color="#68C9FF"/><stop offset=".995" stop-color="#D1B5FF"/></linearGradient><clipPath id="clip0_120_2970"><path fill="#fff" transform="translate(9 9)" d="M0 0h18v18H0z"/></clipPath></defs></svg>