<svg width="48" height="48" fill="none" xmlns="http://www.w3.org/2000/svg"><rect width="48" height="48" rx="12" fill="url(#paint0_linear_120_2710)" fill-opacity=".1"/><g clip-path="url(#clip0_120_2710)"><path d="M30.487 34.5a1.18 1.18 0 01-.537-.128L24 31.257l-5.95 3.115a1.167 1.167 0 01-1.692-1.237l1.167-6.568L12.72 21.9a1.167 1.167 0 01-.292-1.167 1.167 1.167 0 01.945-.793l6.65-.968 2.928-5.985a1.166 1.166 0 012.1 0l2.963 5.973 6.65.968a1.166 1.166 0 01.946.794 1.166 1.166 0 01-.292 1.166l-4.807 4.667 1.167 6.568a1.167 1.167 0 01-.467 1.167 1.166 1.166 0 01-.723.21z" fill="url(#paint1_linear_120_2710)"/></g><defs><linearGradient id="paint0_linear_120_2710" x1="3.192" y1="19.5" x2="42.025" y2="22.749" gradientUnits="userSpaceOnUse"><stop stop-color="#68C9FF"/><stop offset=".995" stop-color="#D1B5FF"/></linearGradient><linearGradient id="paint1_linear_120_2710" x1="13.924" y1="21.338" x2="32.748" y2="22.991" gradientUnits="userSpaceOnUse"><stop stop-color="#68C9FF"/><stop offset=".995" stop-color="#D1B5FF"/></linearGradient><clipPath id="clip0_120_2710"><path fill="#fff" transform="translate(10 10)" d="M0 0h28v28H0z"/></clipPath></defs></svg>