<svg width="14" height="14" fill="none" xmlns="http://www.w3.org/2000/svg"><path d="M3.963 3.469V1.734c0-.153.06-.3.165-.408a.56.56 0 01.4-.17h6.794c.15 0 .294.061.4.17a.584.584 0 01.166.408v8.094c0 .153-.06.3-.166.409a.56.56 0 01-.4.17H9.624v1.734a.574.574 0 01-.57.578H2.268a.558.558 0 01-.402-.168.58.58 0 01-.168-.41L1.7 4.047c0-.32.255-.578.57-.578h1.693zm1.132 0h4.529V9.25h1.132V2.312H5.095V3.47z" fill="url(#paint0_linear_449_8657)"/><defs><linearGradient id="paint0_linear_449_8657" x1="2.376" y1="5.854" x2="10.633" y2="6.462" gradientUnits="userSpaceOnUse"><stop stop-color="#68C9FF"/><stop offset=".995" stop-color="#D1B5FF"/></linearGradient></defs></svg>