<svg width="16" height="17" viewBox="0 0 16 17" fill="none" xmlns="http://www.w3.org/2000/svg">
<path d="M8.47345 8.49999L6.11345 10.86C5.98928 10.9849 5.91959 11.1539 5.91959 11.33C5.91959 11.5061 5.98928 11.6751 6.11345 11.8C6.17543 11.8625 6.24916 11.9121 6.3304 11.9459C6.41164 11.9798 6.49878 11.9972 6.58679 11.9972C6.67479 11.9972 6.76193 11.9798 6.84317 11.9459C6.92441 11.9121 6.99814 11.8625 7.06012 11.8L9.88679 8.97333C9.94927 8.91135 9.99887 8.83762 10.0327 8.75638C10.0666 8.67514 10.084 8.588 10.084 8.49999C10.084 8.41199 10.0666 8.32485 10.0327 8.24361C9.99887 8.16237 9.94927 8.08864 9.88679 8.02666L7.06012 5.16666C6.99783 5.10487 6.92395 5.05599 6.84272 5.02281C6.7615 4.98964 6.67452 4.97282 6.58679 4.97333C6.49905 4.97282 6.41207 4.98964 6.33085 5.02281C6.24962 5.05599 6.17575 5.10487 6.11345 5.16666C5.98929 5.29157 5.91959 5.46054 5.91959 5.63666C5.91959 5.81278 5.98929 5.98175 6.11345 6.10666L8.47345 8.49999Z" fill="#C8D2DC"/>
</svg>
