<svg width="24" height="24" viewBox="0 0 24 24" fill="none" xmlns="http://www.w3.org/2000/svg">
<path d="M12 3C7.03716 3 3 7.03716 3 12C3 16.9628 7.03716 21 12 21C16.9628 21 21 16.9628 21 12C21 7.03716 16.9628 3 12 3ZM14.8274 14.7492C14.5556 15.1454 14.1995 15.4427 13.7326 15.6645C13.3883 15.8172 13.0298 15.9109 12.6595 15.9458V17.1555C12.6595 17.3402 12.5102 17.489 12.326 17.489H11.3278C11.1431 17.489 10.9942 17.3397 10.9942 17.1555V15.8412C10.8063 15.795 10.6211 15.7305 10.4355 15.6457C9.93667 15.4422 9.53436 15.1105 9.25218 14.6644C8.96907 14.2504 8.81691 13.7666 8.79335 13.1951C8.78582 13.0142 8.92384 12.8607 9.10427 12.8484L10.0007 12.7872C10.1812 12.7768 10.3338 12.9045 10.355 13.0807C10.3908 13.3807 10.4751 13.629 10.5995 13.7986C10.7394 14.0087 10.9189 14.1467 11.1902 14.2579C11.7649 14.5109 12.496 14.5113 13.002 14.3168C13.2262 14.2207 13.385 14.1104 13.49 13.9748C13.58 13.8457 13.6243 13.71 13.6243 13.548C13.6243 13.3958 13.5852 13.2837 13.4905 13.1622C13.441 13.0962 13.3134 12.9728 12.9775 12.8385C12.8136 12.7843 12.3877 12.6633 11.7395 12.5064C10.9825 12.3175 10.5444 12.1743 10.2725 12.0269C9.86789 11.813 9.56404 11.5463 9.37325 11.2359C9.17775 10.9198 9.07883 10.559 9.07883 10.1642C9.07883 9.73457 9.19895 9.3252 9.43544 8.9474C9.6804 8.57901 10.0417 8.28977 10.4855 8.10322C10.6339 8.03585 10.8025 7.97932 10.9947 7.9341V6.82188C10.9947 6.63721 11.144 6.48835 11.3282 6.48835H12.3265C12.5111 6.48835 12.66 6.63769 12.66 6.82188V7.87522C12.9601 7.92515 13.238 8.00099 13.49 8.10134C13.9776 8.32039 14.3314 8.61387 14.5839 9.0044C14.8368 9.37278 14.9796 9.81513 15.0046 10.3112C15.0135 10.493 14.875 10.6485 14.6932 10.6607L13.7755 10.7224C13.5984 10.7347 13.4462 10.6084 13.4222 10.4346C13.3708 10.0582 13.2451 9.79534 13.0373 9.63188C12.8013 9.43072 12.4588 9.33698 11.9802 9.33698C11.5115 9.33698 11.1351 9.4279 10.9198 9.59372C10.745 9.72845 10.6631 9.8905 10.6631 10.1034C10.6631 10.2674 10.7144 10.396 10.8157 10.4864C10.8694 10.5288 11.1624 10.7196 12.1098 10.9189C12.8922 11.1035 13.4674 11.2717 13.7826 11.4074C14.2847 11.6335 14.6437 11.9251 14.8543 12.2756C15.0893 12.6275 15.2076 13.0213 15.2076 13.466C15.2076 13.9286 15.0799 14.3601 14.8274 14.7492Z" fill="#1D1F21"/>
</svg>
