<svg width="40" height="40" viewBox="0 0 40 40" fill="none" xmlns="http://www.w3.org/2000/svg">
<path d="M28.3332 15V11.6666C28.3332 6.99998 24.6665 3.33331 19.9998 3.33331C15.3332 3.33331 11.6665 6.99998 11.6665 11.6666V15C8.83317 15 6.6665 17.1666 6.6665 20V31.6666C6.6665 34.5 8.83317 36.6666 11.6665 36.6666H28.3332C31.1665 36.6666 33.3332 34.5 33.3332 31.6666V20C33.3332 17.1666 31.1665 15 28.3332 15ZM14.9998 11.6666C14.9998 8.83331 17.1665 6.66665 19.9998 6.66665C22.8332 6.66665 24.9998 8.83331 24.9998 11.6666V15H14.9998V11.6666ZM21.8332 25.8333L21.6665 26V28.3333C21.6665 29.3333 20.9998 30 19.9998 30C18.9998 30 18.3332 29.3333 18.3332 28.3333V26C17.3332 25 17.1665 23.5 18.1665 22.5C19.1665 21.5 20.6665 21.3333 21.6665 22.3333C22.6665 23.1666 22.8332 24.8333 21.8332 25.8333Z" fill="#C8D2DC"/>
</svg>
