<svg width="25" height="25" viewBox="0 0 25 25" fill="none" xmlns="http://www.w3.org/2000/svg">
<path d="M12.9168 12.3958C12.5002 11.1458 11.2502 10.3125 10.0002 10.3125C8.85433 10.3125 7.81266 10.9375 7.29183 11.875C6.97933 12.3958 7.18766 13.0208 7.7085 13.3333C8.22933 13.6458 8.85433 13.4375 9.16683 12.9167C9.47933 12.3958 10.1043 12.2917 10.6252 12.5C11.146 12.7083 11.2502 13.4375 11.0418 13.9583C10.8335 14.2708 10.521 14.4792 10.1043 14.4792C9.47933 14.4792 9.06266 14.8958 9.06266 15.5208V16.5625C9.06266 17.1875 9.47933 17.6042 10.1043 17.6042C10.7293 17.6042 11.146 17.1875 11.146 16.5625V16.3542C12.6043 15.8333 13.5418 14.0625 12.9168 12.3958ZM9.896 18.75C9.271 18.75 8.85433 19.1667 8.85433 19.7917C8.85433 20.4167 9.271 20.8333 9.896 20.8333C10.521 20.8333 10.9377 20.4167 10.9377 19.7917C10.9377 19.1667 10.521 18.75 9.896 18.75ZM22.396 7.39583C22.0835 7.1875 21.6668 7.1875 21.3543 7.39583L17.7085 9.27083C17.6043 7.60417 16.2502 6.25 14.5835 6.25H5.2085C3.43766 6.25 2.0835 7.60417 2.0835 9.375V15.625C2.0835 17.3958 3.43766 18.75 5.2085 18.75H7.50016C7.60433 18.5417 7.7085 18.3333 7.81266 18.125C7.50016 17.7083 7.29183 17.1875 7.29183 16.5625V15.5208C7.29183 15.3125 7.29183 15.1042 7.396 14.8958C7.18766 14.7917 6.97933 14.7917 6.771 14.6875C5.521 13.9583 5.10433 12.3958 5.8335 11.1458C6.771 9.6875 8.3335 8.75 10.0002 8.75C11.9793 8.75 13.7502 10 14.3752 11.875C14.7918 13.0208 14.6877 14.375 14.1668 15.4167C13.7502 16.25 13.1252 16.875 12.396 17.3958C12.2918 17.7083 12.1877 17.9167 11.9793 18.2292C12.0835 18.3333 12.1877 18.5417 12.2918 18.75H14.5835C16.2502 18.75 17.6043 17.3958 17.7085 15.7292L21.4585 17.6042C21.9793 17.8125 22.6043 17.6042 22.8127 17.1875C22.9168 16.9792 22.9168 16.875 22.9168 16.6667V8.33333C22.9168 8.02083 22.7085 7.60417 22.396 7.39583Z" fill="url(#paint0_linear_55_1746)"/>
<defs>
<linearGradient id="paint0_linear_55_1746" x1="3.46896" y1="12.1745" x2="20.2024" y2="14.1745" gradientUnits="userSpaceOnUse">
<stop stop-color="#68C9FF"/>
<stop offset="0.994746" stop-color="#D1B5FF"/>
</linearGradient>
</defs>
</svg>
