<svg width="16" height="20" viewBox="0 0 16 20" fill="none" xmlns="http://www.w3.org/2000/svg">
<g clip-path="url(#clip0_120_3246)">
<path d="M15.8532 16.5833C14.7866 13.85 13.0066 9.98332 11.4266 6.58332C10.5999 4.79166 9.81989 3.09999 9.25989 1.81666C9.14235 1.52372 8.96195 1.27743 8.73884 1.10531C8.51574 0.933195 8.25873 0.842041 7.99656 0.842041C7.73439 0.842041 7.47738 0.933195 7.25428 1.10531C7.03117 1.27743 6.85077 1.52372 6.73323 1.81666C6.17323 3.09999 5.39989 4.79166 4.56656 6.57499C2.99323 9.99166 1.23323 13.8667 0.139893 16.575C0.0436859 16.8186 -0.0064917 17.0866 -0.00677392 17.3583C-0.00853536 17.595 0.0272386 17.8298 0.0984813 18.0491C0.169724 18.2684 0.275023 18.4679 0.408296 18.636C0.541569 18.8042 0.700174 18.9376 0.874949 19.0287C1.04972 19.1198 1.2372 19.1667 1.42656 19.1667H14.5732C14.7615 19.1656 14.9477 19.1181 15.1212 19.0271C15.2948 18.936 15.4523 18.8032 15.5848 18.636C15.7173 18.4689 15.8221 18.2707 15.8933 18.0529C15.9646 17.8351 16.0008 17.6019 15.9999 17.3667C15.9996 17.095 15.9494 16.827 15.8532 16.5833Z" fill="#86A8FF"/>
</g>
<defs>
<clipPath id="clip0_120_3246">
<rect width="16" height="20" fill="white"/>
</clipPath>
</defs>
</svg>
