<svg width="16" height="20" viewBox="0 0 16 20" fill="none" xmlns="http://www.w3.org/2000/svg">
<g clip-path="url(#clip0_120_3249)">
<path d="M0.146774 3.41667C1.21344 6.15001 2.99344 10.0167 4.57344 13.4167C5.40011 15.2083 6.18011 16.9 6.74011 18.1833C6.85765 18.4763 7.03805 18.7226 7.26116 18.8947C7.48426 19.0668 7.74127 19.158 8.00344 19.158C8.26561 19.158 8.52262 19.0668 8.74572 18.8947C8.96883 18.7226 9.14923 18.4763 9.26677 18.1833C9.82677 16.9 10.6001 15.2083 11.4334 13.425C13.0068 10.0083 14.7668 6.13334 15.8601 3.42501C15.9563 3.18137 16.0065 2.91338 16.0068 2.64167C16.0085 2.40499 15.9728 2.17022 15.9015 1.95091C15.8303 1.73161 15.725 1.53213 15.5917 1.36399C15.4584 1.19584 15.2998 1.06238 15.1251 0.9713C14.9503 0.88022 14.7628 0.833332 14.5734 0.833341L1.42677 0.83334C1.23855 0.834431 1.05233 0.881858 0.878767 0.972907C0.7052 1.06396 0.547681 1.19685 0.415203 1.364C0.282724 1.53114 0.177881 1.72927 0.106659 1.94706C0.0354362 2.16486 -0.000769104 2.39805 0.000108256 2.63334C0.00039052 2.90504 0.0505671 3.17304 0.146774 3.41667Z" fill="#525960"/>
</g>
<defs>
<clipPath id="clip0_120_3249">
<rect width="16" height="20" fill="white" transform="translate(16 20) rotate(-180)"/>
</clipPath>
</defs>
</svg>
