<svg width="20" height="20" viewBox="0 0 20 20" fill="none" xmlns="http://www.w3.org/2000/svg">
<path d="M15.5749 1.66667C15.3539 1.66667 15.1419 1.75446 14.9856 1.91074C14.8293 2.06703 14.7415 2.27899 14.7415 2.5V11.1417C14.7415 11.5837 14.566 12.0076 14.2534 12.3202C13.9408 12.6327 13.5169 12.8083 13.0749 12.8083H6.40821L8.84155 10.375C8.98389 10.2197 9.06215 10.0163 9.06055 9.80561C9.05896 9.59496 8.97765 9.39272 8.83297 9.2396C8.6883 9.08647 8.491 8.99382 8.28077 8.98029C8.07054 8.96676 7.86299 9.03335 7.69988 9.16667L3.84155 13.05C3.76548 13.1308 3.70351 13.2237 3.65821 13.325C3.57487 13.5279 3.57487 13.7554 3.65821 13.9583C3.70035 14.0613 3.76269 14.1548 3.84155 14.2333L7.69988 18.0917C7.8551 18.2456 8.0646 18.3324 8.28321 18.3333C8.39289 18.334 8.50161 18.3129 8.60314 18.2715C8.70467 18.23 8.79701 18.1689 8.87488 18.0917C8.95299 18.0142 9.01498 17.922 9.05729 17.8205C9.0996 17.7189 9.12138 17.61 9.12138 17.5C9.12138 17.39 9.0996 17.2811 9.05729 17.1795C9.01498 17.078 8.95299 16.9858 8.87488 16.9083L6.44155 14.475H13.1082C13.9923 14.475 14.8401 14.1238 15.4652 13.4987C16.0904 12.8736 16.4415 12.0257 16.4415 11.1417V2.5C16.4416 2.3877 16.419 2.27655 16.3751 2.17321C16.3311 2.06987 16.2668 1.97647 16.1858 1.89864C16.1049 1.82081 16.009 1.76013 15.904 1.72027C15.799 1.68041 15.6871 1.66218 15.5749 1.66667Z" fill="#C5FF98"/>
</svg>
