<svg width="28" height="28" viewBox="0 0 28 28" fill="none" xmlns="http://www.w3.org/2000/svg">
<g clip-path="url(#clip0_120_3836)">
<path d="M20.4869 24.5C20.3003 24.5008 20.1163 24.4568 19.9502 24.3717L14.0002 21.2567L8.05021 24.3717C7.857 24.4733 7.63917 24.5186 7.42147 24.5026C7.20377 24.4865 6.99494 24.4097 6.81871 24.2809C6.64249 24.1521 6.50594 23.9764 6.42459 23.7738C6.34325 23.5713 6.32036 23.3499 6.35854 23.135L7.52521 16.5667L2.71854 11.9C2.56858 11.7504 2.46219 11.5627 2.41081 11.3572C2.35943 11.1516 2.36498 10.936 2.42688 10.7333C2.4945 10.526 2.61888 10.3418 2.78592 10.2015C2.95296 10.0613 3.15595 9.97071 3.37188 9.94001L10.0219 8.97168L12.9502 2.98668C13.0457 2.78943 13.1949 2.62308 13.3806 2.50668C13.5663 2.39029 13.781 2.32855 14.0002 2.32855C14.2194 2.32855 14.4341 2.39029 14.6198 2.50668C14.8055 2.62308 14.9547 2.78943 15.0502 2.98668L18.0135 8.96001L24.6635 9.92835C24.8795 9.95904 25.0825 10.0496 25.2495 10.1899C25.4165 10.3301 25.5409 10.5143 25.6085 10.7217C25.6704 10.9243 25.676 11.14 25.6246 11.3455C25.5732 11.551 25.4668 11.7387 25.3169 11.8883L20.5102 16.555L21.6769 23.1233C21.7185 23.3421 21.6967 23.5681 21.614 23.7749C21.5313 23.9816 21.3912 24.1604 21.2102 24.29C20.9989 24.4381 20.7446 24.5119 20.4869 24.5Z" fill="#FCFFFF"/>
</g>
<defs>
<clipPath id="clip0_120_3836">
<rect width="28" height="28" fill="white"/>
</clipPath>
</defs>
</svg>
