<svg width="20" height="21" fill="none" xmlns="http://www.w3.org/2000/svg"><path d="M.833 10.355c0 2.04.11 3.622.385 4.856.272 1.225.694 2.054 1.283 2.643.589.59 1.419 1.011 2.643 1.284 1.234.274 2.816.384 4.856.384s3.622-.11 4.856-.384c1.224-.273 2.054-.695 2.643-1.284.589-.588 1.01-1.418 1.283-2.643.274-1.234.385-2.816.385-4.856s-.11-3.621-.385-4.855c-.272-1.225-.694-2.055-1.283-2.643-.589-.59-1.419-1.011-2.643-1.284C13.622 1.3 12.04 1.19 10 1.19s-3.622.11-4.856.384c-1.224.273-2.054.695-2.643 1.284-.589.588-1.01 1.418-1.283 2.643C.944 6.734.833 8.316.833 10.355zM10 6.188v8.334m4.167-5v5m-8.334-3.334v3.334" stroke="#525960" stroke-width="1.667" stroke-linecap="round" stroke-linejoin="round"/></svg>