<svg width="145" height="30" viewBox="0 0 145 30" fill="none" xmlns="http://www.w3.org/2000/svg">
<path d="M12.6831 3.68955C6.92445 5.62887 7.38554 12.984 7.41307 13.1289C6.23631 6.1456 6.1933 2.43644 10.5445 0.372261C13.7122 -1.13051 16.7754 2.31139 12.6831 3.68955Z" fill="url(#paint0_linear_1431_363)"/>
<path d="M2.06266 5.01708C2.60575 3.59149 3.5654 3.30169 4.46982 3.46246C5.57322 3.65861 5.79805 4.9906 5.46021 6.05917C3.99302 10.6999 5.99299 14.9244 7.52038 16.6699C3.53776 15.4899 0.882625 8.11468 2.06266 5.01708Z" fill="url(#paint1_linear_1431_363)"/>
<path fill-rule="evenodd" clip-rule="evenodd" d="M14.0636 29.7979H8.77518V22.0376C7.37584 21.8162 5.9931 21.5103 4.71782 21.0951C0.985784 19.88 0.00397955 18.3245 1.39638e-05 17.2149C-0.00245681 16.5236 0.322963 15.7279 0.97205 15.4899C1.73616 15.2098 3.20218 15.477 5.75035 17.4075C7.43875 18.6866 9.74275 19.217 12.0155 19.3113C15.0863 19.4239 17.6785 19.1913 18.9856 18.6606C18.9927 18.6584 18.9998 18.6562 19.0068 18.6539C19.0187 18.6485 19.0304 18.643 19.042 18.6375C19.0432 18.637 19.0445 18.6378 19.0445 18.6391C19.0445 18.6403 19.0457 18.6412 19.0468 18.6408C19.335 18.5434 19.5906 18.3984 19.8136 18.2058C20.2851 17.8164 20.7971 16.7921 20.7971 16.1157C20.7971 15.4187 20.5613 14.8755 20.0899 14.4861C19.639 14.0966 19.0548 13.9019 18.3373 13.9019H14.0636V18.1446C11.7715 18.0043 9.80618 17.7103 8.77518 17.4284V9.28993H19.0445C21.2583 9.28993 23.0006 9.94586 24.2714 11.2577C25.5423 12.5491 26.1777 14.1684 26.1777 16.1157C26.1777 18.0424 25.5423 19.6618 24.2714 20.9736C23.0006 22.265 21.2583 22.9106 19.0445 22.9106H14.0636V29.7979Z" fill="url(#paint2_linear_1431_363)"/>
<path d="M39.0785 24.0529C37.7823 24.0529 36.7212 23.5259 35.8951 22.4719V27.7277H33.1817V13.4771H35.8951V14.7804C36.707 13.7406 37.7681 13.2207 39.0785 13.2207C40.4316 13.2207 41.5284 13.705 42.3688 14.6736C43.2234 15.6279 43.6507 16.9454 43.6507 18.6261C43.6507 20.3069 43.2234 21.6315 42.3688 22.6001C41.5284 23.5686 40.4316 24.0529 39.0785 24.0529ZM38.2239 21.6386C39.0073 21.6386 39.634 21.3609 40.104 20.8054C40.5883 20.2499 40.8305 19.5235 40.8305 18.6261C40.8305 17.743 40.5883 17.0237 40.104 16.4682C39.634 15.9127 39.0073 15.635 38.2239 15.635C37.7823 15.635 37.3408 15.7489 36.8993 15.9768C36.4577 16.2047 36.123 16.4825 35.8951 16.8101V20.4635C36.123 20.7911 36.4577 21.0689 36.8993 21.2968C37.355 21.5247 37.7966 21.6386 38.2239 21.6386Z" fill="white"/>
<path d="M50.4877 24.0529C48.8924 24.0529 47.5749 23.5544 46.5351 22.5573C45.4954 21.5603 44.9755 20.2499 44.9755 18.6261C44.9755 17.1021 45.474 15.8202 46.471 14.7804C47.4823 13.7406 48.7642 13.2207 50.3168 13.2207C51.8551 13.2207 53.1014 13.7477 54.0557 14.8017C55.01 15.8415 55.4872 17.2089 55.4872 18.9039V19.5021H47.8171C47.9025 20.1858 48.2088 20.7555 48.7358 21.2113C49.2628 21.6671 49.9465 21.895 50.7868 21.895C51.2426 21.895 51.734 21.8024 52.261 21.6173C52.8023 21.4321 53.2296 21.1828 53.5429 20.8695L54.7394 22.6214C53.6996 23.5757 52.2824 24.0529 50.4877 24.0529ZM52.8593 17.6647C52.8165 17.0807 52.5815 16.5537 52.1542 16.0837C51.7411 15.6136 51.1287 15.3786 50.3168 15.3786C49.5476 15.3786 48.9494 15.6136 48.5221 16.0837C48.0948 16.5395 47.8455 17.0665 47.7743 17.6647H52.8593Z" fill="white"/>
<path d="M62.2543 24.0529C60.659 24.0529 59.3486 23.5473 58.3231 22.536C57.2975 21.5247 56.7848 20.2214 56.7848 18.6261C56.7848 17.0451 57.2975 15.7489 58.3231 14.7377C59.3486 13.7264 60.659 13.2207 62.2543 13.2207C64.0774 13.2207 65.4377 13.8403 66.335 15.0795L64.5617 16.746C64.0632 16.0053 63.3368 15.635 62.3825 15.635C61.5563 15.635 60.8798 15.9127 60.3528 16.4682C59.84 17.0095 59.5836 17.7288 59.5836 18.6261C59.5836 19.5235 59.84 20.2499 60.3528 20.8054C60.8798 21.3609 61.5563 21.6386 62.3825 21.6386C63.3083 21.6386 64.0347 21.2683 64.5617 20.5276L66.335 22.1728C65.4377 23.4262 64.0774 24.0529 62.2543 24.0529Z" fill="white"/>
<path d="M77.8087 23.7965H75.0953V17.5151C75.0953 16.8314 74.9315 16.3472 74.6039 16.0623C74.2763 15.7774 73.7991 15.635 73.1724 15.635C72.2181 15.635 71.4347 16.0409 70.8222 16.8528V23.7965H68.1089V9.5459H70.8222V14.8231C71.1926 14.3816 71.6911 14.0041 72.3178 13.6908C72.9588 13.3774 73.6709 13.2207 74.4543 13.2207C75.5653 13.2207 76.3986 13.5056 76.9541 14.0753C77.5238 14.6451 77.8087 15.4427 77.8087 16.4682V23.7965Z" fill="white"/>
<path d="M85.3523 24.0529C83.757 24.0529 82.4395 23.5544 81.3997 22.5573C80.3599 21.5603 79.84 20.2499 79.84 18.6261C79.84 17.1021 80.3386 15.8202 81.3356 14.7804C82.3469 13.7406 83.6288 13.2207 85.1813 13.2207C86.7196 13.2207 87.966 13.7477 88.9203 14.8017C89.8746 15.8415 90.3517 17.2089 90.3517 18.9039V19.5021H82.6816C82.7671 20.1858 83.0733 20.7555 83.6003 21.2113C84.1273 21.6671 84.811 21.895 85.6514 21.895C86.1072 21.895 86.5986 21.8024 87.1256 21.6173C87.6668 21.4321 88.0941 21.1828 88.4075 20.8695L89.604 22.6214C88.5642 23.5757 87.1469 24.0529 85.3523 24.0529ZM87.7238 17.6647C87.6811 17.0807 87.4461 16.5537 87.0188 16.0837C86.6057 15.6136 85.9932 15.3786 85.1813 15.3786C84.4122 15.3786 83.814 15.6136 83.3867 16.0837C82.9594 16.5395 82.7101 17.0665 82.6389 17.6647H87.7238Z" fill="white"/>
<path d="M101.99 23.7965H99.2767V17.5579C99.2767 16.2759 98.6429 15.635 97.3752 15.635C96.3924 15.635 95.609 16.0409 95.025 16.8528V23.7965H92.3117V13.4771H95.025V14.8231C95.9224 13.7549 97.126 13.2207 98.6358 13.2207C99.7468 13.2207 100.58 13.5127 101.136 14.0967C101.705 14.6807 101.99 15.4854 101.99 16.511V23.7965Z" fill="white"/>
<path d="M107.291 23.5188C106.949 23.8606 106.543 24.0315 106.073 24.0315C105.603 24.0315 105.197 23.8606 104.855 23.5188C104.513 23.1769 104.342 22.771 104.342 22.3009C104.342 21.8309 104.513 21.425 104.855 21.0831C105.197 20.7413 105.603 20.5704 106.073 20.5704C106.543 20.5704 106.949 20.7413 107.291 21.0831C107.633 21.425 107.804 21.8309 107.804 22.3009C107.804 22.771 107.633 23.1769 107.291 23.5188Z" fill="white"/>
<path d="M119.06 23.7965H116.347V22.7283C115.606 23.6113 114.516 24.0529 113.078 24.0529C112.152 24.0529 111.319 23.7538 110.578 23.1556C109.852 22.5431 109.488 21.7027 109.488 20.6345C109.488 19.5235 109.845 18.6902 110.557 18.1347C111.283 17.5792 112.124 17.3015 113.078 17.3015C114.545 17.3015 115.635 17.7217 116.347 18.562V17.1733C116.347 16.6463 116.14 16.2261 115.727 15.9127C115.314 15.5994 114.766 15.4427 114.082 15.4427C112.957 15.4427 111.953 15.8486 111.07 16.6605L110.044 14.8445C111.269 13.762 112.772 13.2207 114.552 13.2207C115.877 13.2207 116.959 13.527 117.8 14.1394C118.64 14.7519 119.06 15.7489 119.06 17.1306V23.7965ZM114.167 22.2155C115.179 22.2155 115.905 21.9164 116.347 21.3181V20.0362C115.905 19.438 115.179 19.1389 114.167 19.1389C113.612 19.1389 113.149 19.2813 112.779 19.5662C112.408 19.8368 112.223 20.2143 112.223 20.6986C112.223 21.1686 112.408 21.5389 112.779 21.8095C113.149 22.0802 113.612 22.2155 114.167 22.2155Z" fill="white"/>
<path d="M124.465 23.7965H121.751V13.4771H124.465V14.8872C124.849 14.4029 125.341 14.0041 125.939 13.6908C126.537 13.3774 127.143 13.2207 127.755 13.2207V15.87C127.57 15.8273 127.321 15.8059 127.007 15.8059C126.552 15.8059 126.067 15.9199 125.554 16.1478C125.042 16.3757 124.678 16.6534 124.465 16.981V23.7965Z" fill="white"/>
<path d="M132.912 24.0529C131.957 24.0529 131.231 23.8108 130.732 23.3265C130.234 22.8422 129.985 22.1443 129.985 21.2327V15.8486H128.275V13.4771H129.985V10.6569H132.719V13.4771H134.813V15.8486H132.719V20.5063C132.719 20.8339 132.805 21.1045 132.976 21.3181C133.147 21.5318 133.375 21.6386 133.659 21.6386C134.087 21.6386 134.4 21.5389 134.599 21.3395L135.176 23.3906C134.678 23.8321 133.923 24.0529 132.912 24.0529Z" fill="white"/>
<path d="M140.387 24.0529C139.49 24.0529 138.628 23.9105 137.802 23.6256C136.99 23.3407 136.313 22.949 135.772 22.4505L136.947 20.549C137.346 20.9193 137.887 21.2469 138.571 21.5318C139.255 21.8167 139.903 21.9591 140.515 21.9591C141.085 21.9591 141.512 21.8594 141.797 21.66C142.096 21.4606 142.246 21.19 142.246 20.8481C142.246 20.5917 142.089 20.3852 141.776 20.2285C141.477 20.0576 141.099 19.9365 140.644 19.8653C140.202 19.7941 139.711 19.6873 139.169 19.5448C138.642 19.4024 138.151 19.2315 137.695 19.0321C137.254 18.8327 136.876 18.5193 136.563 18.092C136.264 17.6504 136.114 17.1092 136.114 16.4682C136.114 15.5567 136.492 14.7875 137.246 14.1608C138.001 13.5341 139.034 13.2207 140.344 13.2207C141.94 13.2207 143.328 13.6908 144.511 14.6308L143.421 16.4896C143.093 16.1478 142.652 15.8629 142.096 15.635C141.555 15.4071 140.978 15.2931 140.366 15.2931C139.881 15.2931 139.49 15.3929 139.191 15.5923C138.892 15.7774 138.742 16.0196 138.742 16.3187C138.742 16.5466 138.892 16.7389 139.191 16.8955C139.49 17.038 139.867 17.1448 140.323 17.216C140.779 17.2872 141.27 17.4012 141.797 17.5579C142.324 17.7003 142.816 17.8783 143.271 18.092C143.727 18.2914 144.105 18.619 144.404 19.0748C144.703 19.5306 144.852 20.0861 144.852 20.7413C144.852 21.7098 144.454 22.5075 143.656 23.1342C142.873 23.7467 141.783 24.0529 140.387 24.0529Z" fill="white"/>
<defs>
<linearGradient id="paint0_linear_1431_363" x1="4" y1="12.5" x2="24.995" y2="19.1491" gradientUnits="userSpaceOnUse">
<stop stop-color="#51EAFF"/>
<stop offset="1" stop-color="#2B59FF"/>
</linearGradient>
<linearGradient id="paint1_linear_1431_363" x1="4" y1="12.5" x2="24.995" y2="19.1491" gradientUnits="userSpaceOnUse">
<stop stop-color="#51EAFF"/>
<stop offset="1" stop-color="#2B59FF"/>
</linearGradient>
<linearGradient id="paint2_linear_1431_363" x1="4" y1="12.5" x2="24.995" y2="19.1491" gradientUnits="userSpaceOnUse">
<stop stop-color="#51EAFF"/>
<stop offset="1" stop-color="#2B59FF"/>
</linearGradient>
</defs>
</svg>
