<svg width="24" height="24" viewBox="0 0 24 24" fill="none" xmlns="http://www.w3.org/2000/svg">
<path d="M12.0002 12.7099L8.46019 9.16993C8.27283 8.98368 8.01938 8.87914 7.75519 8.87914C7.49101 8.87914 7.23756 8.98368 7.05019 9.16993C6.95646 9.2629 6.88207 9.3735 6.8313 9.49536C6.78053 9.61722 6.75439 9.74792 6.75439 9.87993C6.75439 10.0119 6.78053 10.1427 6.8313 10.2645C6.88207 10.3864 6.95646 10.497 7.05019 10.5899L11.2902 14.8299C11.3832 14.9237 11.4938 14.9981 11.6156 15.0488C11.7375 15.0996 11.8682 15.1257 12.0002 15.1257C12.1322 15.1257 12.2629 15.0996 12.3848 15.0488C12.5066 14.9981 12.6172 14.9237 12.7102 14.8299L17.0002 10.5899C17.0929 10.4965 17.1662 10.3857 17.216 10.2638C17.2657 10.142 17.291 10.0115 17.2902 9.87993C17.291 9.74833 17.2657 9.61787 17.216 9.49603C17.1662 9.37419 17.0929 9.26337 17.0002 9.16993C16.8128 8.98368 16.5594 8.87914 16.2952 8.87914C16.031 8.87914 15.7776 8.98368 15.5902 9.16993L12.0002 12.7099Z" fill="url(#paint0_linear_55_3703)"/>
<defs>
<linearGradient id="paint0_linear_55_3703" x1="11.0346" y1="14.7103" x2="11.2864" y2="9.63383" gradientUnits="userSpaceOnUse">
<stop stop-color="#68C9FF"/>
<stop offset="0.994746" stop-color="#D1B5FF"/>
</linearGradient>
</defs>
</svg>
