<svg width="145" height="30" fill="none" xmlns="http://www.w3.org/2000/svg"><path d="M12.683 3.69c-5.759 1.939-5.297 9.294-5.27 9.439C6.236 6.146 6.193 2.436 10.544.372c3.168-1.503 6.231 1.94 2.14 3.318z" fill="url(#paint0_linear_1431_363)"/><path d="M2.063 5.017c.543-1.426 1.502-1.715 2.407-1.555 1.103.197 1.328 1.529.99 2.597-1.467 4.64.533 8.865 2.06 10.61C3.538 15.49.883 8.116 2.063 5.018z" fill="url(#paint1_linear_1431_363)"/><path fill-rule="evenodd" clip-rule="evenodd" d="M14.064 29.798H8.775v-7.76c-1.4-.222-2.782-.528-4.057-.943C.986 19.88.004 18.325 0 17.215c-.002-.691.323-1.487.972-1.725.764-.28 2.23-.013 4.778 1.917 1.689 1.28 3.993 1.81 6.265 1.904 3.071.113 5.663-.12 6.97-.65l.022-.007.035-.017c.001 0 .002 0 .002.002l.003.002c.288-.098.544-.243.767-.435.471-.39.983-1.414.983-2.09 0-.697-.236-1.24-.707-1.63-.451-.39-1.035-.584-1.753-.584h-4.273v4.243c-2.293-.14-4.258-.435-5.289-.717V9.29h10.27c2.213 0 3.956.656 5.226 1.968 1.271 1.291 1.907 2.91 1.907 4.858 0 1.926-.636 3.546-1.907 4.858-1.27 1.291-3.013 1.937-5.227 1.937h-4.98v6.887z" fill="url(#paint2_linear_1431_363)"/><path d="M39.078 24.053c-1.296 0-2.357-.527-3.183-1.581v5.256h-2.713v-14.25h2.713v1.302c.812-1.04 1.873-1.56 3.183-1.56 1.354 0 2.45.485 3.29 1.454.855.954 1.283 2.271 1.283 3.952 0 1.68-.428 3.005-1.282 3.974-.84.969-1.937 1.453-3.29 1.453zm-.854-2.414c.783 0 1.41-.278 1.88-.834.484-.555.727-1.282.727-2.179 0-.883-.243-1.602-.727-2.158-.47-.555-1.097-.833-1.88-.833-.442 0-.883.114-1.325.342-.441.228-.776.506-1.004.833v3.654c.228.327.563.605 1.004.833.456.228.898.342 1.325.342zm12.264 2.414c-1.596 0-2.913-.499-3.953-1.496s-1.56-2.307-1.56-3.93c0-1.525.499-2.807 1.496-3.847 1.011-1.04 2.293-1.56 3.846-1.56 1.538 0 2.784.528 3.739 1.582.954 1.04 1.431 2.407 1.431 4.102v.598h-7.67a2.62 2.62 0 00.919 1.71c.527.455 1.21.683 2.05.683.457 0 .948-.093 1.475-.278.541-.185.969-.434 1.282-.748l1.196 1.752c-1.04.955-2.457 1.432-4.251 1.432zm2.371-6.388c-.043-.584-.278-1.111-.705-1.581-.413-.47-1.025-.705-1.837-.705-.77 0-1.368.235-1.795.705a2.735 2.735 0 00-.748 1.58h5.085zm9.395 6.388c-1.595 0-2.905-.506-3.93-1.517-1.026-1.011-1.54-2.315-1.54-3.91 0-1.58.514-2.877 1.54-3.888 1.025-1.012 2.335-1.517 3.93-1.517 1.823 0 3.184.62 4.081 1.858l-1.773 1.667c-.499-.74-1.225-1.111-2.18-1.111-.826 0-1.502.278-2.03.833-.512.541-.768 1.26-.768 2.158 0 .897.256 1.624.769 2.18.527.555 1.203.833 2.03.833.925 0 1.652-.37 2.179-1.111l1.773 1.645c-.897 1.253-2.258 1.88-4.08 1.88zm15.555-.256h-2.714v-6.282c0-.684-.163-1.168-.491-1.453-.328-.285-.805-.427-1.432-.427-.954 0-1.737.406-2.35 1.218v6.944H68.11V9.546h2.713v5.277c.37-.441.87-.819 1.496-1.132.64-.314 1.353-.47 2.136-.47 1.111 0 1.945.285 2.5.854.57.57.855 1.368.855 2.393v7.329zm7.543.256c-1.595 0-2.913-.499-3.952-1.496-1.04-.997-1.56-2.307-1.56-3.93 0-1.525.499-2.807 1.496-3.847 1.01-1.04 2.293-1.56 3.845-1.56 1.539 0 2.785.528 3.74 1.582.954 1.04 1.43 2.407 1.43 4.102v.598h-7.67a2.62 2.62 0 00.92 1.71c.526.455 1.21.683 2.05.683.456 0 .948-.093 1.475-.278.54-.185.968-.434 1.281-.748l1.197 1.752c-1.04.955-2.457 1.432-4.252 1.432zm2.372-6.388c-.043-.584-.278-1.111-.705-1.581-.413-.47-1.026-.705-1.838-.705-.769 0-1.367.235-1.794.705a2.735 2.735 0 00-.748 1.58h5.085zm14.266 6.132h-2.713v-6.24c0-1.281-.634-1.922-1.902-1.922-.983 0-1.766.406-2.35 1.218v6.944h-2.713v-10.32h2.713v1.346c.897-1.068 2.101-1.602 3.61-1.602 1.112 0 1.945.292 2.501.876.569.584.854 1.388.854 2.414v7.286zm5.301-.278a1.665 1.665 0 01-1.218.513c-.47 0-.876-.171-1.218-.513a1.663 1.663 0 01-.513-1.218c0-.47.171-.876.513-1.218a1.665 1.665 0 011.218-.513c.47 0 .876.171 1.218.513.342.342.513.748.513 1.218s-.171.876-.513 1.218zm11.769.278h-2.713v-1.069c-.741.883-1.831 1.325-3.269 1.325-.926 0-1.759-.3-2.5-.897-.726-.613-1.09-1.453-1.09-2.521 0-1.112.357-1.945 1.069-2.5.726-.556 1.567-.834 2.521-.834 1.467 0 2.557.42 3.269 1.261v-1.389a1.5 1.5 0 00-.62-1.26c-.413-.314-.961-.47-1.645-.47-1.125 0-2.129.406-3.012 1.217l-1.026-1.816c1.225-1.082 2.728-1.623 4.508-1.623 1.325 0 2.407.306 3.248.918.84.613 1.26 1.61 1.26 2.992v6.666zm-4.893-1.582c1.012 0 1.738-.299 2.18-.897v-1.282c-.442-.598-1.168-.897-2.18-.897-.555 0-1.018.142-1.388.427-.371.27-.556.648-.556 1.133 0 .47.185.84.556 1.11.37.271.833.406 1.388.406zm10.298 1.582h-2.714v-10.32h2.714v1.41a4.537 4.537 0 011.474-1.196 3.87 3.87 0 011.816-.47v2.649a3.464 3.464 0 00-.748-.064c-.455 0-.94.114-1.453.342-.512.228-.876.505-1.089.833v6.816zm8.447.256c-.955 0-1.681-.242-2.18-.727-.498-.484-.747-1.182-.747-2.093v-5.384h-1.71v-2.372h1.71v-2.82h2.734v2.82h2.094v2.372h-2.094v4.657c0 .328.086.599.257.812a.83.83 0 00.683.32c.428 0 .741-.1.94-.299l.577 2.052c-.498.441-1.253.662-2.264.662zm7.475 0a7.873 7.873 0 01-2.585-.427c-.812-.285-1.489-.677-2.03-1.175l1.175-1.902c.399.37.94.698 1.624.983.684.285 1.332.427 1.944.427.57 0 .997-.1 1.282-.299.299-.2.449-.47.449-.812 0-.256-.157-.463-.47-.62-.299-.17-.677-.292-1.132-.363a15.638 15.638 0 01-1.475-.32 10.53 10.53 0 01-1.474-.513 2.854 2.854 0 01-1.132-.94c-.299-.442-.449-.983-.449-1.624 0-.911.378-1.68 1.132-2.307.755-.627 1.788-.94 3.098-.94 1.596 0 2.984.47 4.167 1.41l-1.09 1.859c-.328-.342-.769-.627-1.325-.855a4.412 4.412 0 00-1.73-.342c-.485 0-.876.1-1.175.3-.299.184-.449.427-.449.726 0 .228.15.42.449.576.299.143.676.25 1.132.321.456.071.947.185 1.474.342.527.142 1.019.32 1.474.534.456.2.834.527 1.133.983.299.456.448 1.011.448 1.666 0 .969-.398 1.767-1.196 2.393-.783.613-1.873.919-3.269.919z" fill="#fff"/><defs><linearGradient id="paint0_linear_1431_363" x1="4" y1="12.5" x2="24.995" y2="19.149" gradientUnits="userSpaceOnUse"><stop stop-color="#51EAFF"/><stop offset="1" stop-color="#2B59FF"/></linearGradient><linearGradient id="paint1_linear_1431_363" x1="4" y1="12.5" x2="24.995" y2="19.149" gradientUnits="userSpaceOnUse"><stop stop-color="#51EAFF"/><stop offset="1" stop-color="#2B59FF"/></linearGradient><linearGradient id="paint2_linear_1431_363" x1="4" y1="12.5" x2="24.995" y2="19.149" gradientUnits="userSpaceOnUse"><stop stop-color="#51EAFF"/><stop offset="1" stop-color="#2B59FF"/></linearGradient></defs></svg>